<?xml version="1.0" standalone="no"?>
<!DOCTYPE svg PUBLIC "-//W3C//DTD SVG 20010904//EN"
 "http://www.w3.org/TR/2001/REC-SVG-20010904/DTD/svg10.dtd">
<svg version="1.0" xmlns="http://www.w3.org/2000/svg"
 width="1920.000000pt" height="1080.000000pt" viewBox="0 0 1920.000000 1080.000000"
 preserveAspectRatio="xMidYMid meet">

<g transform="translate(0.000000,1080.000000) scale(0.100000,-0.100000)"
fill="#000000" stroke="none">
<path d="M13180 7339 c-35 -4 -100 -20 -145 -35 -183 -60 -302 -160 -379 -317
-67 -138 -79 -211 -73 -447 3 -107 10 -224 16 -259 42 -240 172 -645 291 -906
15 -33 38 -85 51 -115 27 -65 215 -441 260 -520 56 -99 151 -250 161 -256 6
-4 16 1 22 11 18 30 115 202 173 310 154 281 290 573 390 840 9 22 19 49 23
60 33 82 102 312 125 415 9 41 20 93 26 115 18 77 29 211 29 345 -1 233 -24
335 -108 470 -44 69 -63 90 -132 144 -76 58 -116 80 -185 100 -33 10 -70 22
-83 27 -65 25 -325 36 -462 18z m393 -184 c207 -45 323 -147 386 -340 21 -65
23 -399 3 -490 -8 -33 -20 -89 -28 -125 -29 -130 -73 -277 -139 -460 -46 -125
-68 -181 -115 -285 -5 -11 -30 -67 -55 -124 -52 -116 -133 -280 -207 -419 -40
-74 -53 -90 -63 -82 -14 12 -224 424 -262 515 -12 28 -39 91 -61 140 -21 50
-51 124 -66 165 -15 41 -32 86 -38 100 -22 54 -80 240 -107 345 -63 240 -87
446 -70 587 24 202 82 312 209 393 89 58 151 78 270 91 30 4 57 9 60 11 9 9
217 -7 283 -22z"/>
<path d="M13240 6824 c-98 -56 -163 -147 -189 -267 -21 -98 12 -197 91 -274
69 -67 138 -96 239 -101 71 -4 94 -1 131 16 117 52 209 191 209 320 1 60 -39
166 -79 213 -67 79 -161 119 -277 119 -67 0 -87 -4 -125 -26z m241 -179 c44
-29 69 -78 69 -138 0 -110 -134 -191 -233 -141 -69 35 -98 80 -99 153 0 78 46
141 112 154 45 9 114 -4 151 -28z"/>
<path d="M15393 7315 c-102 -46 -160 -118 -188 -232 -15 -61 -16 -79 -5 -125
28 -118 84 -194 184 -246 44 -23 63 -26 141 -26 78 0 98 3 147 27 65 32 129
99 160 167 32 69 28 203 -8 276 -34 70 -117 146 -183 168 -74 24 -184 20 -248
-9z"/>
<path d="M16108 7303 c7 -3 16 -2 19 1 4 3 -2 6 -13 5 -11 0 -14 -3 -6 -6z"/>
<path d="M16378 7283 c7 -3 16 -2 19 1 4 3 -2 6 -13 5 -11 0 -14 -3 -6 -6z"/>
<path d="M15990 7219 c0 -5 5 -7 10 -4 6 3 10 8 10 11 0 2 -4 4 -10 4 -5 0
-10 -5 -10 -11z"/>
<path d="M16480 7186 c0 -2 8 -10 18 -17 15 -13 16 -12 3 4 -13 16 -21 21 -21
13z"/>
<path d="M15920 7125 c-11 -13 -10 -14 4 -9 9 3 16 10 16 15 0 13 -6 11 -20
-6z"/>
<path d="M8953 7123 c-10 -4 -13 -266 -13 -1263 0 -1138 2 -1258 16 -1264 20
-8 462 -8 491 0 l23 6 0 1245 c0 820 -4 1252 -11 1264 -9 18 -24 19 -252 18
-133 0 -248 -3 -254 -6z"/>
<path d="M15880 7011 c0 -10 7 -21 15 -25 10 -3 15 1 15 13 0 10 -7 21 -15 25
-10 3 -15 -1 -15 -13z"/>
<path d="M15931 6864 c0 -11 3 -14 6 -6 3 7 2 16 -1 19 -3 4 -6 -2 -5 -13z"/>
<path d="M15990 6785 c0 -8 4 -15 10 -15 5 0 7 7 4 15 -4 8 -8 15 -10 15 -2 0
-4 -7 -4 -15z"/>
<path d="M16288 6693 c6 -2 18 -2 25 0 6 3 1 5 -13 5 -14 0 -19 -2 -12 -5z"/>
<path d="M1507 6664 c-4 -4 -7 -130 -7 -281 l0 -273 -72 -1 c-66 -1 -98 -3
-135 -7 -10 -2 -13 -48 -13 -197 l0 -194 108 -3 107 -3 6 -370 c6 -365 6 -371
32 -446 59 -172 142 -258 304 -316 69 -24 283 -24 377 1 91 23 176 61 176 78
0 13 -27 103 -75 258 -15 47 -29 94 -32 105 -11 40 -21 44 -63 24 -51 -25
-110 -25 -143 1 -51 40 -58 89 -55 391 l3 274 155 5 155 5 3 184 c2 130 -1
188 -9 198 -10 11 -42 14 -148 13 -75 -1 -142 -1 -148 0 -10 0 -13 66 -15 278
l-3 277 -251 3 c-138 1 -253 -1 -257 -4z"/>
<path d="M3360 6144 c-138 -24 -215 -64 -324 -165 l-86 -81 0 95 c0 66 -4 98
-13 105 -9 8 -93 11 -258 9 l-244 -2 0 -755 0 -755 255 0 255 0 5 430 5 430
28 60 c49 105 110 153 223 175 75 15 194 -5 273 -44 l50 -26 17 32 c55 105
194 390 194 397 0 13 -78 52 -144 71 -66 19 -192 32 -236 24z"/>
<path d="M4279 6140 c-153 -17 -307 -97 -418 -215 -98 -105 -148 -193 -192
-335 -20 -65 -23 -96 -23 -240 -1 -193 10 -244 81 -390 41 -83 60 -108 147
-195 108 -107 164 -142 301 -186 60 -20 90 -23 210 -23 125 1 149 4 219 28 84
29 193 94 240 144 16 17 33 29 38 26 4 -3 8 -41 8 -85 l0 -79 253 2 252 3 5
720 c5 666 6 718 21 695 14 -21 122 -223 302 -560 22 -41 71 -133 110 -205
149 -279 188 -351 267 -500 29 -55 62 -112 72 -128 l20 -27 171 2 c160 3 172
4 182 23 5 11 31 58 56 105 26 47 70 130 99 185 29 55 56 105 60 110 4 6 35
64 70 130 35 66 91 172 125 235 34 63 86 160 115 215 29 55 61 114 70 130 10
17 43 80 75 140 32 61 71 133 86 161 50 90 69 84 -263 84 -161 0 -298 -4 -305
-8 -11 -7 -21 -27 -108 -222 -26 -58 -55 -123 -65 -145 -16 -35 -74 -166 -130
-290 -10 -22 -28 -64 -40 -92 -12 -29 -26 -53 -31 -53 -5 0 -19 24 -32 53 -47
102 -66 145 -170 377 -162 364 -164 367 -181 373 -9 4 -257 7 -551 6 l-535 0
-5 -22 c-3 -12 -6 -44 -7 -70 l-3 -48 -55 42 c-139 106 -333 152 -541 129z
m398 -462 c78 -28 163 -114 192 -193 29 -77 29 -194 0 -271 -24 -62 -82 -133
-142 -171 -52 -33 -159 -56 -221 -47 -207 27 -330 180 -313 385 11 132 75 228
190 284 64 31 81 35 154 35 60 0 98 -6 140 -22z"/>
<path d="M7920 6139 c-320 -39 -608 -288 -685 -594 -72 -283 6 -553 219 -759
105 -102 218 -167 362 -208 68 -19 102 -22 239 -21 221 0 355 33 505 123 91
54 250 219 250 259 0 6 -81 51 -180 101 l-180 90 -79 -65 c-98 -79 -147 -95
-284 -95 -89 0 -105 3 -161 29 -34 17 -78 47 -99 67 -41 42 -80 132 -75 178
l3 31 539 3 c395 1 542 5 547 14 11 17 0 192 -17 273 -59 288 -264 492 -559
558 -92 20 -251 28 -345 16z m266 -357 c54 -27 102 -78 125 -130 38 -88 56
-82 -261 -82 l-280 0 0 30 c0 62 70 155 139 182 84 34 211 34 277 0z"/>
<path d="M10565 6143 c-108 -14 -209 -61 -300 -138 -35 -30 -67 -55 -70 -55
-3 0 -5 33 -5 74 0 58 -3 75 -16 80 -20 8 -452 8 -482 0 l-22 -6 2 -752 3
-751 235 -3 c129 -1 245 0 258 3 l22 5 0 463 c0 515 0 519 66 595 57 67 162
89 270 57 60 -17 113 -69 146 -140 22 -49 22 -58 28 -515 l5 -465 252 -3 252
-2 3 472 3 473 26 56 c15 31 37 66 50 79 92 88 280 78 362 -20 63 -74 62 -61
67 -580 l5 -475 255 0 255 0 3 530 c4 577 0 627 -49 730 -37 79 -77 125 -152
179 -78 55 -182 93 -297 107 -194 23 -343 -31 -502 -182 l-83 -79 -20 27
c-100 135 -230 210 -406 233 -75 10 -110 10 -164 3z"/>
<path d="M15290 6139 c-95 -16 -210 -80 -294 -163 -41 -41 -77 -71 -80 -68 -4
3 -6 47 -6 98 l0 93 -32 6 c-18 3 -134 5 -258 3 l-225 -3 0 -755 0 -755 255 0
255 0 5 425 c6 464 5 456 70 555 80 124 285 157 454 74 33 -16 60 -28 62 -27
1 2 50 99 108 216 l105 213 -32 20 c-53 32 -129 57 -211 68 -87 12 -99 12
-176 0z"/>
<path d="M16316 6139 c-317 -33 -606 -283 -692 -600 -23 -84 -24 -299 -1 -379
37 -130 86 -222 169 -315 129 -146 255 -224 435 -272 83 -22 346 -24 433 -4
225 52 387 148 498 297 28 37 48 72 46 76 -3 5 -86 49 -185 99 l-180 90 -57
-51 c-97 -87 -161 -111 -300 -111 -98 0 -149 14 -217 61 -62 43 -92 86 -112
164 -16 59 -16 68 -3 76 9 6 234 10 554 10 l539 0 -6 123 c-10 181 -45 299
-124 419 -117 179 -326 295 -571 318 -117 11 -113 11 -226 -1z m267 -359 c71
-33 119 -96 141 -182 l6 -28 -286 0 -287 0 6 37 c14 84 111 182 196 197 60 10
177 -2 224 -24z"/>
</g>
</svg>
