<?xml version="1.0" encoding="UTF-8"?>
<svg version="1.1" xmlns="http://www.w3.org/2000/svg" width="1920" height="1080">
<path d="M0 0 C633.6 0 1267.2 0 1920 0 C1920 356.4 1920 712.8 1920 1080 C1286.4 1080 652.8 1080 0 1080 C0 723.6 0 367.2 0 0 Z " fill="#5CE1E6" transform="translate(0,0)"/>
<path d="M0 0 C3.77777781 2.68641978 5.18347471 5.74025065 6.8125 10 C7.23660156 9.54109375 7.66070313 9.0821875 8.09765625 8.609375 C13.87234469 2.56816248 17.92029624 -1.08614659 26.50634766 -1.47045898 C36.78958097 -1.61384124 44.78808882 0.43179994 52.40625 7.546875 C56.8125 12.1 56.8125 12.1 56.8125 15 C57.4725 15 58.1325 15 58.8125 15 C59.19921875 14.11634766 59.19921875 14.11634766 59.59375 13.21484375 C63.33081464 6.42344743 71.52646735 1.16378893 78.8125 -1 C87.65672792 -2.01534943 96.13340374 -2.01522372 103.8125 3 C104.96492188 3.72896484 104.96492188 3.72896484 106.140625 4.47265625 C116.20019915 11.51768914 120.25375258 21.46515489 122.44058228 33.26235962 C123.69444243 42.49186914 123.35496436 51.93747363 123.27905273 61.23046875 C123.24980258 65.15146397 123.25853794 69.07112726 123.27148438 72.9921875 C123.26525409 75.49740238 123.25686873 78.00261304 123.24609375 80.5078125 C123.24902939 81.67345734 123.25196503 82.83910217 123.25498962 84.04006958 C123.13583524 94.27088555 123.13583524 94.27088555 119.8125 99 C115.31792946 102.09655006 111.13097176 102.46497415 105.8125 102.375 C104.78382813 102.39240234 104.78382813 102.39240234 103.734375 102.41015625 C99.02757481 102.38320892 95.69860767 101.67734743 91.8125 99 C88.05892647 93.49572585 88.38769576 88.09836038 88.40625 81.6875 C88.39541382 80.60041748 88.38457764 79.51333496 88.37341309 78.39331055 C88.32765598 73.75736716 88.3160835 69.12148024 88.30126953 64.48535156 C88.28555653 61.09419963 88.25255205 57.7035121 88.21875 54.3125 C88.22177124 53.26860107 88.22479248 52.22470215 88.22790527 51.14916992 C88.17171849 45.69658927 87.94788983 41.67844141 84.8125 37 C81.8972525 34.57062708 80.09306714 34.03507089 76.3125 33.5625 C72.17392613 34.07982173 70.65796706 34.99193482 67.8125 38 C66.12501231 41.49836652 65.56004788 44.30324472 65.54125977 48.16992188 C65.53107315 49.17446411 65.52088654 50.17900635 65.51039124 51.21398926 C65.50825119 52.2880603 65.50611115 53.36213135 65.50390625 54.46875 C65.47875428 56.75390889 65.45335615 59.03906508 65.42773438 61.32421875 C65.39895627 64.91877592 65.37493077 68.51328641 65.35620117 72.10791016 C65.33456462 75.5825975 65.29513539 79.05674803 65.25390625 82.53125 C65.25379044 83.60532104 65.25367462 84.67939209 65.2535553 85.78601074 C65.12896745 95.16871255 65.12896745 95.16871255 61.8125 99 C57.26544161 102.0269662 53.14548084 102.4652196 47.8125 102.375 C46.78382813 102.39240234 46.78382813 102.39240234 45.734375 102.41015625 C41.02757481 102.38320892 37.69860767 101.67734743 33.8125 99 C30.11407655 93.54321966 30.40294407 88.32052619 30.44140625 81.9765625 C30.42402374 79.7994776 30.40643935 77.6223943 30.38867188 75.4453125 C30.37860729 72.03317289 30.37500193 68.62113821 30.37670898 65.20898438 C30.37312693 61.90202988 30.34574014 58.59587414 30.31640625 55.2890625 C30.32458878 54.27735992 30.3327713 53.26565735 30.34120178 52.22329712 C30.27338158 45.72855166 29.27345888 41.53929044 25.8125 36 C22.27399601 33.76515538 18.9395209 33.48412239 14.8125 34 C11.31862065 36.22337777 9.34982038 38.18116605 7.8125 42 C7.51478764 44.4199441 7.51478764 44.4199441 7.55712891 47.04052734 C7.54669052 48.54261246 7.54669052 48.54261246 7.53604126 50.07504272 C7.53703827 51.151138 7.53803528 52.22723328 7.5390625 53.3359375 C7.51877376 55.61979657 7.49792298 57.9036507 7.4765625 60.1875 C7.45396015 63.78422209 7.43749065 67.38074921 7.43164062 70.97753906 C7.42211501 74.45152946 7.38833568 77.92464356 7.3515625 81.3984375 C7.35660797 82.47048431 7.36165344 83.54253113 7.36685181 84.64706421 C7.28659272 90.74486545 6.89630676 94.36303467 2.8125 99 C-1.4045429 102.50555587 -5.3766844 102.48765766 -10.625 102.4375 C-11.36298828 102.45748047 -12.10097656 102.47746094 -12.86132812 102.49804688 C-18.06069809 102.49342521 -21.16619522 101.55935814 -25.1875 98 C-28.14530905 93.26147507 -28.62412517 89.16217705 -28.59155273 83.703125 C-28.60184761 82.4873175 -28.60184761 82.4873175 -28.61235046 81.24694824 C-28.63057675 78.58111811 -28.62678746 75.91587876 -28.62109375 73.25 C-28.62565713 71.3896465 -28.63096318 69.52929469 -28.63697815 67.66894531 C-28.64590073 63.77532083 -28.64349534 59.88190155 -28.63354492 55.98828125 C-28.62204865 51.00479896 -28.6422811 46.02202457 -28.67146206 41.03863525 C-28.6898278 37.19868491 -28.68953099 33.35890415 -28.68382454 29.5189209 C-28.68367141 27.68175258 -28.68970869 25.84457271 -28.70211601 24.00744629 C-28.71703375 21.43680664 -28.7063444 18.86747439 -28.68920898 16.296875 C-28.69887695 15.54241089 -28.70854492 14.78794678 -28.71850586 14.01062012 C-28.64692386 8.8690311 -27.4141242 5.96838895 -24.1875 2 C-18.16030978 -2.87523577 -7.2010261 -2.41603054 0 0 Z " fill="#FDFEFE" transform="translate(719.1875,486)"/>
<path d="M0 0 C7.63439458 7.3939412 13.31688111 16.35193885 17.0625 26.25 C17.60970703 27.5184375 17.60970703 27.5184375 18.16796875 28.8125 C21.37006033 41.11748076 20.79829697 57.86802788 15.0625 69.25 C14.65 70.16136719 14.2375 71.07273437 13.8125 72.01171875 C5.96581784 87.99487531 -7.42775125 97.52598969 -23.9375 103.25 C-36.12272361 106.60628089 -51.52729081 105.25668051 -62.9375 100.25 C-63.86433594 99.84910156 -64.79117188 99.44820312 -65.74609375 99.03515625 C-81.28120236 91.43286906 -91.29223909 78.35361279 -96.9375 62.25 C-100.14364297 48.51637366 -99.91233102 31.68021066 -92.9375 19.25 C-92.21626953 17.89068359 -92.21626953 17.89068359 -91.48046875 16.50390625 C-83.20539595 1.80964769 -70.46790929 -7.32496048 -54.453125 -12.5625 C-35.58700508 -17.12075716 -15.19431025 -11.93585677 0 0 Z " fill="#FBFEFE" transform="translate(961.9375,494.75)"/>
<path d="M0 0 C2.08046402 1.39717437 3.7200136 2.7510901 5.390625 4.60546875 C5.9475 3.67734375 6.504375 2.74921875 7.078125 1.79296875 C9.49148702 -1.53355728 10.71178586 -2.70465798 14.390625 -4.39453125 C17.21446053 -4.81565817 19.97772008 -4.81410752 22.828125 -4.76953125 C23.56611328 -4.78113281 24.30410156 -4.79273438 25.06445312 -4.8046875 C29.8663151 -4.77907757 33.30222194 -4.15224642 37.390625 -1.39453125 C40.74737049 2.86329156 40.81902177 6.86406922 40.77880859 12.08007812 C40.78406555 12.92133743 40.78932251 13.76259674 40.79473877 14.62934875 C40.807914 17.4028291 40.79920951 20.17573283 40.7890625 22.94921875 C40.79108395 24.88065704 40.79399598 26.81209459 40.79776001 28.74353027 C40.80218001 32.78856687 40.7957627 36.83340452 40.78173828 40.87841797 C40.76464664 46.06033921 40.77448955 51.24179428 40.79245567 56.42369843 C40.80330224 60.41114812 40.79984315 64.39848751 40.7920723 68.38594055 C40.79007271 70.29649409 40.79252109 72.20705769 40.79951096 74.11759949 C40.80713974 76.78895553 40.79550132 79.45955928 40.77880859 82.13085938 C40.78488129 82.91854202 40.79095398 83.70622467 40.79721069 84.51777649 C40.74477381 89.053161 40.23818069 92.02136493 37.390625 95.60546875 C31.20055032 99.50790714 24.53020377 99.27986221 17.390625 98.60546875 C13.49835179 97.6290794 9.70842657 96.01400047 7.390625 92.60546875 C7.390625 91.28546875 7.390625 89.96546875 7.390625 88.60546875 C6.79894531 89.08757812 6.20726562 89.5696875 5.59765625 90.06640625 C4.80746094 90.69804688 4.01726562 91.3296875 3.203125 91.98046875 C2.03716797 92.92019531 2.03716797 92.92019531 0.84765625 93.87890625 C-4.64042953 97.73539896 -9.34282429 97.94346386 -15.859375 97.91796875 C-17.07173828 97.94213867 -17.07173828 97.94213867 -18.30859375 97.96679688 C-30.87183113 97.97684746 -39.89405764 92.22890546 -48.859375 83.79296875 C-59.58397243 72.57106136 -64.09793031 58.77519126 -63.81640625 43.51953125 C-63.007836 28.23297672 -55.72075137 16.47678039 -44.7421875 6.24609375 C-31.88793951 -5.03628158 -15.23337425 -8.42830133 0 0 Z " fill="#FDFEFE" transform="translate(1495.609375,489.39453125)"/>
<path d="M0 0 C2.08046402 1.39717437 3.7200136 2.7510901 5.390625 4.60546875 C5.9475 3.67734375 6.504375 2.74921875 7.078125 1.79296875 C9.49148702 -1.53355728 10.71178586 -2.70465798 14.390625 -4.39453125 C17.21446053 -4.81565817 19.97772008 -4.81410752 22.828125 -4.76953125 C23.56611328 -4.78113281 24.30410156 -4.79273438 25.06445312 -4.8046875 C29.8663151 -4.77907757 33.30222194 -4.15224642 37.390625 -1.39453125 C40.74737049 2.86329156 40.81902177 6.86406922 40.77880859 12.08007812 C40.78406555 12.92133743 40.78932251 13.76259674 40.79473877 14.62934875 C40.807914 17.4028291 40.79920951 20.17573283 40.7890625 22.94921875 C40.79108395 24.88065704 40.79399598 26.81209459 40.79776001 28.74353027 C40.80218001 32.78856687 40.7957627 36.83340452 40.78173828 40.87841797 C40.76464664 46.06033921 40.77448955 51.24179428 40.79245567 56.42369843 C40.80330224 60.41114812 40.79984315 64.39848751 40.7920723 68.38594055 C40.79007271 70.29649409 40.79252109 72.20705769 40.79951096 74.11759949 C40.80713974 76.78895553 40.79550132 79.45955928 40.77880859 82.13085938 C40.78488129 82.91854202 40.79095398 83.70622467 40.79721069 84.51777649 C40.74477381 89.053161 40.23818069 92.02136493 37.390625 95.60546875 C31.20055032 99.50790714 24.53020377 99.27986221 17.390625 98.60546875 C13.49835179 97.6290794 9.70842657 96.01400047 7.390625 92.60546875 C7.390625 91.28546875 7.390625 89.96546875 7.390625 88.60546875 C6.79894531 89.08757812 6.20726562 89.5696875 5.59765625 90.06640625 C4.80746094 90.69804688 4.01726562 91.3296875 3.203125 91.98046875 C2.03716797 92.92019531 2.03716797 92.92019531 0.84765625 93.87890625 C-4.64042953 97.73539896 -9.34282429 97.94346386 -15.859375 97.91796875 C-17.07173828 97.94213867 -17.07173828 97.94213867 -18.30859375 97.96679688 C-30.87183113 97.97684746 -39.89405764 92.22890546 -48.859375 83.79296875 C-59.58397243 72.57106136 -64.09793031 58.77519126 -63.81640625 43.51953125 C-63.007836 28.23297672 -55.72075137 16.47678039 -44.7421875 6.24609375 C-31.88793951 -5.03628158 -15.23337425 -8.42830133 0 0 Z " fill="#FDFEFE" transform="translate(332.609375,489.39453125)"/>
<path d="M0 0 C1.46034668 0.00845947 1.46034668 0.00845947 2.95019531 0.01708984 C15.65190168 0.23125885 26.11459523 2.8154062 35.6953125 11.5390625 C45.08276114 21.29829128 48.66179211 31.43817014 48.5234375 44.76171875 C48.00083935 51.54802906 45.81292563 56.20969895 40.75 60.75 C36.6801611 63.99662148 33.47240563 65.56614851 28.20605469 65.53955078 C26.70495148 65.53932419 26.70495148 65.53932419 25.17352295 65.53909302 C24.10047913 65.52877045 23.0274353 65.51844788 21.921875 65.5078125 C20.81773254 65.5049826 19.71359009 65.50215271 18.57598877 65.49923706 C15.0505488 65.48804489 11.52536315 65.46294175 8 65.4375 C5.60937867 65.42746897 3.21875336 65.41834333 0.828125 65.41015625 C-5.03133673 65.3881087 -10.89065019 65.35464053 -16.75 65.3125 C-16.1633378 67.66722214 -15.49088026 70.00165917 -14.75 72.3125 C-12.41666667 73.72916667 -12.41666667 73.72916667 -9.75 74.3125 C-9.1202124 74.64975098 -8.4904248 74.98700195 -7.84155273 75.33447266 C-4.29154538 76.99448543 -0.67523561 76.69356216 3.1875 76.6875 C4.03272217 76.68878906 4.87794434 76.69007813 5.7487793 76.69140625 C12.20069645 76.58359865 17.4445394 75.5113954 23.48828125 73.1875 C27.28708635 71.98391819 30.57833172 71.47005847 34.2265625 73.30859375 C39.70177095 78.09615754 42.61842559 83.28621312 43.75 90.5 C42.69886471 96.41263602 38.9736824 99.94455726 34.25 103.3125 C24.93304219 107.23252373 15.71275627 107.95319713 5.75390625 107.83398438 C3.61864716 107.81243589 1.48672402 107.83396804 -0.6484375 107.859375 C-15.96227866 107.89108594 -29.57442471 103.09840308 -40.75 92.3125 C-42.4288738 90.13648396 -43.9178134 88.0580795 -45.375 85.75 C-45.74367188 85.20537109 -46.11234375 84.66074219 -46.4921875 84.09960938 C-52.60483499 74.57550193 -54.46467021 64.54379725 -54.3125 53.375 C-54.29606445 51.66268188 -54.29606445 51.66268188 -54.27929688 49.91577148 C-53.9069153 35.4435752 -48.9521447 24.27950733 -38.43359375 14.0625 C-26.99971606 4.37215101 -14.83147592 -0.08946943 0 0 Z " fill="#FDFEFE" transform="translate(1728.75,482.6875)"/>
<path d="M0 0 C1.46034668 0.00845947 1.46034668 0.00845947 2.95019531 0.01708984 C15.65190168 0.23125885 26.11459523 2.8154062 35.6953125 11.5390625 C45.08276114 21.29829128 48.66179211 31.43817014 48.5234375 44.76171875 C48.00083935 51.54802906 45.81292563 56.20969895 40.75 60.75 C36.6801611 63.99662148 33.47240563 65.56614851 28.20605469 65.53955078 C26.70495148 65.53932419 26.70495148 65.53932419 25.17352295 65.53909302 C24.10047913 65.52877045 23.0274353 65.51844788 21.921875 65.5078125 C20.81773254 65.5049826 19.71359009 65.50215271 18.57598877 65.49923706 C15.0505488 65.48804489 11.52536315 65.46294175 8 65.4375 C5.60937867 65.42746897 3.21875336 65.41834333 0.828125 65.41015625 C-5.03133673 65.3881087 -10.89065019 65.35464053 -16.75 65.3125 C-16.1633378 67.66722214 -15.49088026 70.00165917 -14.75 72.3125 C-12.41666667 73.72916667 -12.41666667 73.72916667 -9.75 74.3125 C-9.1202124 74.64975098 -8.4904248 74.98700195 -7.84155273 75.33447266 C-4.29154538 76.99448543 -0.67523561 76.69356216 3.1875 76.6875 C4.03272217 76.68878906 4.87794434 76.69007813 5.7487793 76.69140625 C12.20069645 76.58359865 17.4445394 75.5113954 23.48828125 73.1875 C27.28708635 71.98391819 30.57833172 71.47005847 34.2265625 73.30859375 C39.70177095 78.09615754 42.61842559 83.28621312 43.75 90.5 C42.69886471 96.41263602 38.9736824 99.94455726 34.25 103.3125 C24.93304219 107.23252373 15.71275627 107.95319713 5.75390625 107.83398438 C3.61864716 107.81243589 1.48672402 107.83396804 -0.6484375 107.859375 C-15.96227866 107.89108594 -29.57442471 103.09840308 -40.75 92.3125 C-42.4288738 90.13648396 -43.9178134 88.0580795 -45.375 85.75 C-45.74367188 85.20537109 -46.11234375 84.66074219 -46.4921875 84.09960938 C-52.60483499 74.57550193 -54.46467021 64.54379725 -54.3125 53.375 C-54.29606445 51.66268188 -54.29606445 51.66268188 -54.27929688 49.91577148 C-53.9069153 35.4435752 -48.9521447 24.27950733 -38.43359375 14.0625 C-26.99971606 4.37215101 -14.83147592 -0.08946943 0 0 Z " fill="#FDFEFE" transform="translate(565.75,482.6875)"/>
<path d="M0 0 C0.99837891 -0.00773437 1.99675781 -0.01546875 3.02539062 -0.0234375 C11.44841406 -0.00128622 18.15707839 1.2533121 25.75 5.125 C26.73355469 5.61742187 27.71710938 6.10984375 28.73046875 6.6171875 C37.37502616 11.60122198 43.47547774 19.86493929 46.90234375 29.2109375 C47.78634157 33.28046591 47.99517352 37.21854288 48.0625 41.375 C48.08111084 42.12716797 48.09972168 42.87933594 48.11889648 43.65429688 C48.04938018 49.8149264 46.39496916 55.17802238 42.15063477 59.78125 C37.62073407 63.77110012 33.39146685 65.50736186 27.4050293 65.47705078 C25.90403938 65.47682419 25.90403938 65.47682419 24.37272644 65.47659302 C23.3048439 65.46627045 22.23696136 65.45594788 21.13671875 65.4453125 C20.03399124 65.4424826 18.93126373 65.43965271 17.79512024 65.43673706 C14.27996886 65.42555981 10.76507411 65.40045937 7.25 65.375 C4.86393598 65.36496704 2.47786795 65.35584174 0.09179688 65.34765625 C-5.75138935 65.32562849 -11.59442634 65.29217514 -17.4375 65.25 C-15.13428827 70.26085646 -13.29633412 72.51690581 -8.4375 75.25 C1.66470874 78.61740291 14.49606763 76.9003184 24.1484375 73.09375 C27.67681265 71.8605315 30.05578442 72.03338439 33.5625 73.25 C38.1706768 76.89367468 41.93296526 81.60632921 42.94921875 87.48828125 C43.13878523 91.37766238 42.71372411 93.90810202 41.125 97.5 C33.72325635 105.44333465 24.35947427 106.80916923 13.91113281 107.48681641 C10.00112568 107.62463388 6.09981265 107.6702398 2.1875 107.6875 C0.88039063 107.72037109 -0.42671875 107.75324219 -1.7734375 107.78710938 C-16.519833 107.86757086 -28.7545022 103.32612161 -39.6171875 93.22265625 C-45.00516735 87.6008584 -48.4049354 81.38266751 -51.4375 74.25 C-51.77910156 73.47269531 -52.12070313 72.69539062 -52.47265625 71.89453125 C-57.25953735 58.95882001 -55.50220292 41.48628976 -49.875 29.1875 C-42.19464884 14.77983395 -30.34431632 6.53645387 -15.3125 1.125 C-10.16251876 -0.03789899 -5.2616651 -0.04060449 0 0 Z " fill="#FDFEFE" transform="translate(1149.4375,482.75)"/>
<path d="M0 0 C1.18529297 -0.03673828 1.18529297 -0.03673828 2.39453125 -0.07421875 C7.78518176 -0.10112716 10.87169736 0.77204944 15.125 4.375 C17.54704038 8.00806058 17.35802891 9.69319023 17.3203125 14.01171875 C17.31386719 15.31044922 17.30742188 16.60917969 17.30078125 17.94726562 C17.2840706 19.31901307 17.26714071 20.69075786 17.25 22.0625 C17.23996674 23.44595718 17.23084149 24.82942127 17.22265625 26.21289062 C17.19904967 29.60043452 17.16612037 32.98763072 17.125 36.375 C17.87281738 36.21491455 18.62063477 36.0548291 19.39111328 35.88989258 C26.27425822 34.59354031 36.1880305 33.71493173 42.5 37.125 C45.50313389 39.69911476 46.88673092 41.29691156 47.34423828 45.28710938 C47.46726329 47.61171582 47.49623947 49.92223328 47.5 52.25 C47.52449219 53.04019531 47.54898437 53.83039063 47.57421875 54.64453125 C47.6010354 60.01680063 46.78237939 63.17863838 43.125 67.375 C39.99371435 69.35575943 37.59316981 69.61300197 33.921875 69.5703125 C32.45234375 69.56064453 32.45234375 69.56064453 30.953125 69.55078125 C29.42945313 69.52564453 29.42945313 69.52564453 27.875 69.5 C26.84375 69.49097656 25.8125 69.48195313 24.75 69.47265625 C22.20809713 69.44912011 19.6666672 69.41624023 17.125 69.375 C17.21889298 73.55629125 17.32506401 77.73704036 17.44238281 81.91772461 C17.48055149 83.3385373 17.51542513 84.75944263 17.546875 86.18041992 C17.59279065 88.22868855 17.65073805 90.27632608 17.7109375 92.32421875 C17.7423584 93.55487061 17.7737793 94.78552246 17.80615234 96.0534668 C18.11366942 99.25696588 18.65017121 101.52787938 20.125 104.375 C23.50770494 106.06635247 27.34506273 105.72203402 31.08203125 105.8984375 C35.58493659 106.60364219 38.10842941 108.07432235 40.9140625 111.6640625 C43.52018064 117.4984044 43.18528644 125.44096996 41 131.4375 C38.69982659 135.04110501 36.91060603 136.36761026 33.125 138.375 C29.90109694 138.94424419 26.766761 138.94568916 23.5 138.875 C22.16811646 138.85687256 22.16811646 138.85687256 20.80932617 138.83837891 C9.41857499 138.49600274 -1.35634261 135.17139468 -9.43359375 126.75 C-15.96153184 118.38184197 -17.04071686 107.95938361 -16.97265625 97.6953125 C-16.9712413 96.88254852 -16.96982635 96.06978455 -16.96836853 95.23239136 C-16.96280335 92.65488899 -16.9502574 90.0774758 -16.9375 87.5 C-16.9324805 85.74479293 -16.92791838 83.98958448 -16.92382812 82.234375 C-16.91284534 77.94788268 -16.89560492 73.66145643 -16.875 69.375 C-17.69484375 69.42140625 -18.5146875 69.4678125 -19.359375 69.515625 C-20.43703125 69.55171875 -21.5146875 69.5878125 -22.625 69.625 C-23.69234375 69.67140625 -24.7596875 69.7178125 -25.859375 69.765625 C-29.54852736 69.28775552 -30.58117456 68.22111033 -32.875 65.375 C-35.54667006 61.62618043 -35.20652545 57.42912585 -35.1875 53 C-35.20361328 52.2575 -35.21972656 51.515 -35.23632812 50.75 C-35.24061985 45.89176197 -34.52683428 42.592375 -31.875 38.375 C-27.98147112 35.1303926 -24.84236392 35.00704712 -19.875 35.375 C-18.885 35.705 -17.895 36.035 -16.875 36.375 C-16.89594727 35.55821777 -16.91689453 34.74143555 -16.93847656 33.89990234 C-17.0218513 30.18339445 -17.07372988 26.46708367 -17.125 22.75 C-17.17527344 20.82220703 -17.17527344 20.82220703 -17.2265625 18.85546875 C-17.33711341 8.18730583 -17.33711341 8.18730583 -15.109375 4.6015625 C-10.40715848 -0.0842127 -6.39825745 0.01033644 0 0 Z " fill="#FDFEFE" transform="translate(1286.875,449.625)"/>
<path d="M0 0 C1.18529297 -0.03673828 1.18529297 -0.03673828 2.39453125 -0.07421875 C7.78518176 -0.10112716 10.87169736 0.77204944 15.125 4.375 C17.54704038 8.00806058 17.35802891 9.69319023 17.3203125 14.01171875 C17.31386719 15.31044922 17.30742187 16.60917969 17.30078125 17.94726562 C17.2840706 19.31901307 17.26714071 20.69075786 17.25 22.0625 C17.23996674 23.44595718 17.23084149 24.82942127 17.22265625 26.21289062 C17.19904967 29.60043452 17.16612037 32.98763072 17.125 36.375 C17.87281738 36.21491455 18.62063477 36.0548291 19.39111328 35.88989258 C26.27425822 34.59354031 36.1880305 33.71493173 42.5 37.125 C45.50313389 39.69911476 46.88673092 41.29691156 47.34423828 45.28710938 C47.46726329 47.61171582 47.49623947 49.92223328 47.5 52.25 C47.52449219 53.04019531 47.54898438 53.83039063 47.57421875 54.64453125 C47.6010354 60.01680063 46.78237939 63.17863838 43.125 67.375 C39.99371435 69.35575943 37.59316981 69.61300197 33.921875 69.5703125 C32.45234375 69.56064453 32.45234375 69.56064453 30.953125 69.55078125 C29.42945313 69.52564453 29.42945313 69.52564453 27.875 69.5 C26.84375 69.49097656 25.8125 69.48195313 24.75 69.47265625 C22.20809713 69.44912011 19.6666672 69.41624023 17.125 69.375 C17.21889298 73.55629125 17.32506401 77.73704036 17.44238281 81.91772461 C17.48055149 83.3385373 17.51542513 84.75944263 17.546875 86.18041992 C17.59279065 88.22868855 17.65073805 90.27632608 17.7109375 92.32421875 C17.7423584 93.55487061 17.7737793 94.78552246 17.80615234 96.0534668 C18.11366942 99.25696588 18.65017121 101.52787938 20.125 104.375 C23.50770494 106.06635247 27.34506273 105.72203402 31.08203125 105.8984375 C35.58493659 106.60364219 38.10842941 108.07432235 40.9140625 111.6640625 C43.52018064 117.4984044 43.18528644 125.44096996 41 131.4375 C38.69982659 135.04110501 36.91060603 136.36761026 33.125 138.375 C29.90109694 138.94424419 26.766761 138.94568916 23.5 138.875 C22.16811646 138.85687256 22.16811646 138.85687256 20.80932617 138.83837891 C9.41857499 138.49600274 -1.35634261 135.17139468 -9.43359375 126.75 C-15.96153184 118.38184197 -17.04071686 107.95938361 -16.97265625 97.6953125 C-16.9712413 96.88254852 -16.96982635 96.06978455 -16.96836853 95.23239136 C-16.96280335 92.65488899 -16.9502574 90.0774758 -16.9375 87.5 C-16.9324805 85.74479293 -16.92791838 83.98958448 -16.92382812 82.234375 C-16.91284534 77.94788268 -16.89560492 73.66145643 -16.875 69.375 C-17.69484375 69.42140625 -18.5146875 69.4678125 -19.359375 69.515625 C-20.43703125 69.55171875 -21.5146875 69.5878125 -22.625 69.625 C-23.69234375 69.67140625 -24.7596875 69.7178125 -25.859375 69.765625 C-29.54852736 69.28775552 -30.58117456 68.22111033 -32.875 65.375 C-35.54667006 61.62618043 -35.20652545 57.42912585 -35.1875 53 C-35.20361328 52.2575 -35.21972656 51.515 -35.23632812 50.75 C-35.24061985 45.89176197 -34.52683428 42.592375 -31.875 38.375 C-27.98147112 35.1303926 -24.84236392 35.00704712 -19.875 35.375 C-18.885 35.705 -17.895 36.035 -16.875 36.375 C-16.89594727 35.55821777 -16.91689453 34.74143555 -16.93847656 33.89990234 C-17.0218513 30.18339445 -17.07372988 26.46708367 -17.125 22.75 C-17.17527344 20.82220703 -17.17527344 20.82220703 -17.2265625 18.85546875 C-17.33711341 8.18730583 -17.33711341 8.18730583 -15.109375 4.6015625 C-10.40715848 -0.0842127 -6.39825745 0.01033644 0 0 Z " fill="#FDFEFE" transform="translate(123.875,449.625)"/>
<path d="M0 0 C5.70690574 3.22927349 7.88234573 8.91585645 10.6875 14.5625 C11.74706099 16.6433997 12.80696205 18.72412627 13.8671875 20.8046875 C14.39280273 21.84592773 14.91841797 22.88716797 15.45996094 23.95996094 C17.70427969 28.390249 20.00264559 32.7911209 22.3125 37.1875 C22.6839917 37.90301025 23.0554834 38.61852051 23.43823242 39.35571289 C26.75466814 45.68947196 30.36655562 51.84385331 34 58 C34.52843506 56.96294922 35.05687012 55.92589844 35.60131836 54.85742188 C37.6052983 50.9268353 39.61369894 46.99852057 41.62329102 43.07080078 C42.48448219 41.38617454 43.34454982 39.70097336 44.20336914 38.01513672 C47.10231125 32.3258144 50.03105913 26.6531269 53 21 C53.40389954 20.22897949 53.80779907 19.45795898 54.22393799 18.66357422 C55.38502268 16.46482792 56.56549059 14.27782227 57.75390625 12.09375 C58.09397202 11.44780884 58.43403778 10.80186768 58.78440857 10.13635254 C61.27836374 5.62947846 63.87406423 2.95667424 68 0 C74.99309382 -1.53848064 81.21587701 2.38392311 87 6 C90.19058425 8.48616954 92.56053145 10.9104465 93.41308594 14.96411133 C93.64828503 21.95161851 91.06755772 26.51298272 87.5 32.375 C86.91976074 33.36395264 86.33952148 34.35290527 85.74169922 35.37182617 C83.84626803 38.59255288 81.92389678 41.79621059 80 45 C78.69878908 47.19558919 77.39932234 49.39221295 76.1015625 51.58984375 C74.10976527 54.96127696 72.11439571 58.33024562 70.10571289 61.69165039 C66.62752723 67.51649321 63.21005784 73.36279991 59.89453125 79.28125 C59.22329129 80.47233207 58.5519065 81.66333253 57.88037109 82.85424805 C56.62053994 85.09670951 55.37146962 87.34526392 54.13525391 89.60083008 C49.9658969 96.99911854 45.8381417 102.42570375 38 106 C33.08763503 106.97683739 28.87290813 106.38050822 24.5 103.9375 C18.83964503 99.67284899 15.84088836 93.72581312 12.48193359 87.64355469 C9.70865079 82.69642022 6.79961965 77.82756544 3.9190979 72.94238281 C2.06412694 69.79116771 0.2199227 66.63366736 -1.625 63.4765625 C-4.40772975 58.71603777 -7.19943696 53.96099428 -10 49.2109375 C-11.22920414 47.1198137 -12.45837273 45.02866899 -13.6875 42.9375 C-14.23881592 42.00623291 -14.79013184 41.07496582 -15.3581543 40.11547852 C-18.14422212 35.3645852 -20.82957735 30.56549384 -23.39453125 25.69140625 C-23.8944458 24.74595947 -24.39436035 23.8005127 -24.90942383 22.82641602 C-26.1372502 19.64429246 -26.29300741 17.38375355 -26 14 C-23.06618899 7.43385155 -17.11779757 4.39047407 -11 1 C-7.35001694 -0.21666102 -3.78201543 -0.75501773 0 0 Z " fill="#FDFEFE" transform="translate(1573,483)"/>
<path d="M0 0 C5.70690574 3.22927349 7.88234573 8.91585645 10.6875 14.5625 C11.74706099 16.6433997 12.80696205 18.72412627 13.8671875 20.8046875 C14.39280273 21.84592773 14.91841797 22.88716797 15.45996094 23.95996094 C17.70427969 28.390249 20.00264559 32.7911209 22.3125 37.1875 C22.6839917 37.90301025 23.0554834 38.61852051 23.43823242 39.35571289 C26.75466814 45.68947196 30.36655562 51.84385331 34 58 C34.52843506 56.96294922 35.05687012 55.92589844 35.60131836 54.85742188 C37.6052983 50.9268353 39.61369894 46.99852057 41.62329102 43.07080078 C42.48448219 41.38617454 43.34454982 39.70097336 44.20336914 38.01513672 C47.10231125 32.3258144 50.03105913 26.6531269 53 21 C53.40389954 20.22897949 53.80779907 19.45795898 54.22393799 18.66357422 C55.38502268 16.46482792 56.56549059 14.27782227 57.75390625 12.09375 C58.09397202 11.44780884 58.43403778 10.80186768 58.78440857 10.13635254 C61.27836374 5.62947846 63.87406423 2.95667424 68 0 C74.99309382 -1.53848064 81.21587701 2.38392311 87 6 C90.19058425 8.48616954 92.56053145 10.9104465 93.41308594 14.96411133 C93.64828503 21.95161851 91.06755772 26.51298272 87.5 32.375 C86.91976074 33.36395264 86.33952148 34.35290527 85.74169922 35.37182617 C83.84626803 38.59255288 81.92389678 41.79621059 80 45 C78.69878908 47.19558919 77.39932234 49.39221295 76.1015625 51.58984375 C74.10976527 54.96127696 72.11439571 58.33024562 70.10571289 61.69165039 C66.62752723 67.51649321 63.21005784 73.36279991 59.89453125 79.28125 C59.22329129 80.47233207 58.5519065 81.66333253 57.88037109 82.85424805 C56.62053994 85.09670951 55.37146962 87.34526392 54.13525391 89.60083008 C49.9658969 96.99911854 45.8381417 102.42570375 38 106 C33.08763503 106.97683739 28.87290813 106.38050822 24.5 103.9375 C18.83964503 99.67284899 15.84088836 93.72581312 12.48193359 87.64355469 C9.70865079 82.69642022 6.79961965 77.82756544 3.9190979 72.94238281 C2.06412694 69.79116771 0.2199227 66.63366736 -1.625 63.4765625 C-4.40772975 58.71603777 -7.19943696 53.96099428 -10 49.2109375 C-11.22920414 47.1198137 -12.45837273 45.02866899 -13.6875 42.9375 C-14.23881592 42.00623291 -14.79013184 41.07496582 -15.3581543 40.11547852 C-18.14422212 35.3645852 -20.82957735 30.56549384 -23.39453125 25.69140625 C-23.8944458 24.74595947 -24.39436035 23.8005127 -24.90942383 22.82641602 C-26.1372502 19.64429246 -26.29300741 17.38375355 -26 14 C-23.06618899 7.43385155 -17.11779757 4.39047407 -11 1 C-7.35001694 -0.21666102 -3.78201543 -0.75501773 0 0 Z " fill="#FDFEFE" transform="translate(410,483)"/>
<path d="M0 0 C1.20269531 -0.02578125 2.40539063 -0.0515625 3.64453125 -0.078125 C8.60140999 0.38094646 11.6744402 1.86191702 15.33041382 5.21591187 C18.03514922 9.6348805 17.74418627 13.50400783 17.70166016 18.59228516 C17.70878525 19.63182846 17.71591034 20.67137177 17.72325134 21.74241638 C17.74253409 25.17482499 17.73425328 28.6066177 17.7265625 32.0390625 C17.73646595 34.42370507 17.74840585 36.80833998 17.76229858 39.19296265 C17.79468293 45.46853895 17.80505534 51.74394064 17.80914307 58.01959229 C17.81789579 68.07201102 17.85328492 78.12428624 17.9013176 88.17658615 C17.91394063 91.69261727 17.91314157 95.20846854 17.91104126 98.72451782 C17.91761924 100.87184795 17.92462504 103.01917682 17.93212891 105.16650391 C17.92594292 106.63933586 17.92594292 106.63933586 17.91963196 108.141922 C17.9250148 109.03913467 17.93039764 109.93634735 17.9359436 110.86074829 C17.93627909 111.64054361 17.93661457 112.42033894 17.93696022 113.22376442 C18.07248946 115.56325535 18.07248946 115.56325535 20.1875 118.25 C22.45002298 118.68361729 22.45002298 118.68361729 25 118.6875 C29.56570014 119.00419596 31.95786344 119.81199979 35.1875 123.25 C36.98998065 126.8549613 36.4578256 131.02998348 36.5 135 C36.52900391 135.89460937 36.55800781 136.78921875 36.58789062 137.7109375 C36.643893 143.55241579 36.05903769 146.79665423 32.1875 151.25 C23.98145923 155.35302038 7.88284693 152.72270568 -0.49609375 150.16015625 C-6.57555294 147.77143114 -9.48291362 144.76543071 -12.8125 139.25 C-18.1590324 125.71226178 -17.38069696 111.22409795 -17.30859375 96.92578125 C-17.30874899 94.40471861 -17.31024216 91.88365574 -17.31300354 89.3625946 C-17.31455499 83.44387275 -17.29633224 77.52544656 -17.27020174 71.60678881 C-17.2482697 66.21605157 -17.25204099 60.82557359 -17.2624411 55.4348138 C-17.27322609 49.57319882 -17.26693147 43.71172288 -17.25288582 37.85011864 C-17.24837323 35.36739694 -17.24803283 32.88466401 -17.25195122 30.4019413 C-17.25485789 26.94391283 -17.23838729 23.48651343 -17.21655273 20.02856445 C-17.22105438 19.00569336 -17.22555603 17.98282227 -17.23019409 16.92895508 C-17.13930034 8.27547252 -17.13930034 8.27547252 -13.8125 4.25 C-9.44245277 0.42620867 -5.69604768 0.07279294 0 0 Z " fill="#FDFEFE" transform="translate(1806.8125,435.75)"/>
<path d="M0 0 C2.4656856 2.04056739 2.95657975 2.86973924 4 6 C4.09598311 7.46746924 4.13752644 8.93885199 4.14476013 10.40943909 C4.15165863 11.31098724 4.15855713 12.2125354 4.16566467 13.1414032 C4.16827805 14.1280043 4.17089142 15.11460541 4.17358398 16.13110352 C4.180271 17.17196106 4.18695801 18.2128186 4.19384766 19.28521729 C4.20790631 21.54747404 4.21979776 23.80974505 4.22979546 26.07202339 C4.24617937 29.64759142 4.26941427 33.2230532 4.29469299 36.79856873 C4.36555516 46.96518689 4.42571428 57.13184758 4.47680664 67.29858398 C4.50852045 73.51365904 4.54977214 79.72861077 4.59700203 85.94358635 C4.61306313 88.31712575 4.62536557 90.69069356 4.63390923 93.06427193 C4.64600398 96.3757398 4.67012739 99.68691515 4.69702148 102.99829102 C4.69761063 103.98691635 4.69819977 104.97554169 4.69880676 105.99412537 C4.71338425 107.34221786 4.71338425 107.34221786 4.72825623 108.71754456 C4.73248816 109.50085931 4.7367201 110.28417406 4.74108028 111.09122562 C4.83635301 113.24011516 4.83635301 113.24011516 7 115 C9.03682311 115.34952539 9.03682311 115.34952539 11.3125 115.4375 C15.24978302 115.80464215 17.86175515 116.43234513 21 119 C23.63034457 122.76028132 23.33156021 126.9019672 23.3125 131.3125 C23.32861328 132.04662109 23.34472656 132.78074219 23.36132812 133.53710938 C23.36594483 138.7401365 22.56221861 142.43659034 20 147 C16.54749919 149.96393937 11.83403184 149.30252556 7.5 149.25 C6.69771973 149.24250732 5.89543945 149.23501465 5.06884766 149.22729492 C-6.42325789 149.02113268 -15.8042413 148.02830577 -24.3125 139.75 C-29.81471579 130.78342612 -30.15038552 120.89330504 -30.16113281 110.65795898 C-30.16609772 109.52394653 -30.17106262 108.38993408 -30.17617798 107.22155762 C-30.19075392 103.47973012 -30.1975923 99.73794494 -30.203125 95.99609375 C-30.20887808 93.39347838 -30.2146358 90.79086303 -30.22039795 88.18824768 C-30.22995317 83.43283994 -30.23586061 78.6774413 -30.2388947 73.92202514 C-30.24338136 66.92985783 -30.26096719 59.93788541 -30.2898953 52.94577736 C-30.31412063 46.87918847 -30.32183898 40.81269185 -30.32357025 34.74604988 C-30.32660009 32.16841632 -30.33463967 29.59078366 -30.34775543 27.01318169 C-30.36477484 23.4128518 -30.362946 19.81300007 -30.35644531 16.21264648 C-30.3656601 15.14601273 -30.37487488 14.07937897 -30.3843689 12.98042297 C-30.33264911 3.8546403 -30.33264911 3.8546403 -27 0 C-19.06820496 -5.11160125 -7.97818368 -4.67526216 0 0 Z " fill="#FEFEFE" transform="translate(657,439)"/>
<path d="M0 0 C3.09101464 2.11895348 4.69971076 4.45797417 5.43359375 8.2265625 C5.84941539 16.16497563 3.31091789 23.60159134 -1.125 30.125 C-4.01457392 33.01457392 -5.83235711 33.15766385 -9.8125 33.1875 C-13.7557578 33.15929358 -16.36634937 32.52995816 -20 31 C-25.63460206 30.55280936 -29.14906044 30.80278984 -34 34 C-36.57968328 36.2531076 -37.85907585 38.03362006 -38.3581543 41.45602417 C-38.49376068 44.6005803 -38.50071115 47.7237591 -38.46875 50.87109375 C-38.47579956 52.02617935 -38.48284912 53.18126495 -38.4901123 54.37135315 C-38.51961238 59.30701156 -38.50296446 64.24227591 -38.49072266 69.17797852 C-38.48834243 72.78425713 -38.50925935 76.38989468 -38.53125 79.99609375 C-38.51993042 81.10875107 -38.50861084 82.22140839 -38.49694824 83.36778259 C-38.53732304 89.5623583 -38.81342998 93.30615781 -43 98 C-47.2170429 101.50555587 -51.1891844 101.48765766 -56.4375 101.4375 C-57.17548828 101.45748047 -57.91347656 101.47746094 -58.67382812 101.49804688 C-63.8844332 101.49341523 -66.92952239 100.50696524 -71 97 C-74.27733614 92.75610895 -74.4291312 88.89942866 -74.38818359 83.72485352 C-74.39344055 82.90470764 -74.39869751 82.08456177 -74.40411377 81.23956299 C-74.41728791 78.53581543 -74.40858413 75.83265953 -74.3984375 73.12890625 C-74.40045917 71.24470405 -74.40337139 69.36050262 -74.40713501 67.4763031 C-74.41155502 63.52961773 -74.40513839 59.58313625 -74.39111328 55.63647461 C-74.37403337 50.58468396 -74.38385707 45.5333719 -74.40183067 40.48159885 C-74.41268724 36.59104324 -74.40921337 32.7006005 -74.4014473 28.81004143 C-74.39944986 26.94776286 -74.4018885 25.08547396 -74.40888596 23.22320747 C-74.41652995 20.61671053 -74.40485469 18.01098101 -74.38818359 15.40454102 C-74.39425629 14.63915512 -74.40032898 13.87376923 -74.40658569 13.08518982 C-74.35033224 8.32246412 -73.55455374 5.03069804 -71 1 C-66.28747577 -2.28490659 -62.03663578 -2.4625742 -56.5 -2.375 C-55.76652344 -2.38660156 -55.03304688 -2.39820313 -54.27734375 -2.41015625 C-49.48082585 -2.38441465 -46.13846186 -1.65509752 -42 1 C-40 4 -40 4 -40 8 C-39.34 8 -38.68 8 -38 8 C-37.77183594 7.40574219 -37.54367187 6.81148438 -37.30859375 6.19921875 C-35.64081768 3.39635927 -33.88031043 2.42208628 -31.0625 0.8125 C-30.18722656 0.30332031 -29.31195312 -0.20585937 -28.41015625 -0.73046875 C-20.08301002 -5.11672892 -8.3376662 -4.07584797 0 0 Z " fill="#FCFEFE" transform="translate(1419,487)"/>
<path d="M0 0 C3.09101464 2.11895348 4.69971076 4.45797417 5.43359375 8.2265625 C5.84941539 16.16497563 3.31091789 23.60159134 -1.125 30.125 C-4.01457392 33.01457392 -5.83235711 33.15766385 -9.8125 33.1875 C-13.7557578 33.15929358 -16.36634937 32.52995816 -20 31 C-25.63460206 30.55280936 -29.14906044 30.80278984 -34 34 C-36.57968328 36.2531076 -37.85907585 38.03362006 -38.3581543 41.45602417 C-38.49376068 44.6005803 -38.50071115 47.7237591 -38.46875 50.87109375 C-38.47579956 52.02617935 -38.48284912 53.18126495 -38.4901123 54.37135315 C-38.51961238 59.30701156 -38.50296446 64.24227591 -38.49072266 69.17797852 C-38.48834243 72.78425713 -38.50925935 76.38989468 -38.53125 79.99609375 C-38.51993042 81.10875107 -38.50861084 82.22140839 -38.49694824 83.36778259 C-38.53732304 89.5623583 -38.81342998 93.30615781 -43 98 C-47.2170429 101.50555587 -51.1891844 101.48765766 -56.4375 101.4375 C-57.17548828 101.45748047 -57.91347656 101.47746094 -58.67382812 101.49804688 C-63.8844332 101.49341523 -66.92952239 100.50696524 -71 97 C-74.27733614 92.75610895 -74.4291312 88.89942866 -74.38818359 83.72485352 C-74.39344055 82.90470764 -74.39869751 82.08456177 -74.40411377 81.23956299 C-74.41728791 78.53581543 -74.40858413 75.83265953 -74.3984375 73.12890625 C-74.40045917 71.24470405 -74.40337139 69.36050262 -74.40713501 67.4763031 C-74.41155502 63.52961773 -74.40513839 59.58313625 -74.39111328 55.63647461 C-74.37403337 50.58468396 -74.38385707 45.5333719 -74.40183067 40.48159885 C-74.41268724 36.59104324 -74.40921337 32.7006005 -74.4014473 28.81004143 C-74.39944986 26.94776286 -74.4018885 25.08547396 -74.40888596 23.22320747 C-74.41652995 20.61671053 -74.40485469 18.01098101 -74.38818359 15.40454102 C-74.39425629 14.63915512 -74.40032898 13.87376923 -74.40658569 13.08518982 C-74.35033224 8.32246412 -73.55455374 5.03069804 -71 1 C-66.28747577 -2.28490659 -62.03663578 -2.4625742 -56.5 -2.375 C-55.76652344 -2.38660156 -55.03304687 -2.39820313 -54.27734375 -2.41015625 C-49.48082585 -2.38441465 -46.13846186 -1.65509752 -42 1 C-40 4 -40 4 -40 8 C-39.34 8 -38.68 8 -38 8 C-37.77183594 7.40574219 -37.54367188 6.81148438 -37.30859375 6.19921875 C-35.64081768 3.39635927 -33.88031043 2.42208628 -31.0625 0.8125 C-30.18722656 0.30332031 -29.31195313 -0.20585937 -28.41015625 -0.73046875 C-20.08301002 -5.11672892 -8.3376662 -4.07584797 0 0 Z " fill="#FCFEFE" transform="translate(256,487)"/>
<path d="M0 0 C3.2104361 3.2104361 4.22318557 5.75846911 4.5 10.1875 C4.17192418 16.87345901 2.1354826 24.23738285 -2.625 29.125 C-6.9807164 32.56372348 -10.59879204 32.40674596 -16 32 C-17.66666667 31.33333333 -19.33333333 30.66666667 -21 30 C-27.53790916 29.12993604 -31.65351673 30.18108338 -37 34 C-39.19439886 37.29159829 -39.25341246 38.28745106 -39.27124023 42.1105957 C-39.28142685 43.15210281 -39.29161346 44.19360992 -39.30210876 45.26667786 C-39.30424881 46.39168198 -39.30638885 47.5166861 -39.30859375 48.67578125 C-39.3337565 51.05403888 -39.35915449 53.43229403 -39.38476562 55.81054688 C-39.41350078 59.56306299 -39.4375152 63.31553598 -39.45629883 67.06811523 C-39.47796649 70.68756678 -39.51741229 74.30650681 -39.55859375 77.92578125 C-39.55870956 79.04471268 -39.55882538 80.1636441 -39.5589447 81.31648254 C-39.63018683 86.92965777 -39.74581918 91.19507246 -43 96 C-48.49142745 100.97660613 -55.10157331 100.40254052 -62.0859375 100.28515625 C-67.03259422 99.92477108 -69.27018247 99.19698646 -73 96 C-75.65769785 92.24493744 -75.29559674 88.07166727 -75.29052734 83.65478516 C-75.29724457 82.81527817 -75.30396179 81.97577118 -75.31088257 81.11082458 C-75.32987322 78.3368436 -75.3337873 75.56310443 -75.3359375 72.7890625 C-75.34236468 70.8585907 -75.34909298 68.92811989 -75.35610962 66.99765015 C-75.36808505 62.95088442 -75.37179017 58.90420407 -75.37060547 54.85742188 C-75.37040226 49.6766264 -75.39770482 44.49637939 -75.43214989 39.31571388 C-75.45440757 35.32823175 -75.45844336 31.34088185 -75.45738602 27.35334396 C-75.45974366 25.44359827 -75.4685764 23.53384903 -75.48405075 21.62416458 C-75.50368787 18.95038907 -75.49788188 16.27779927 -75.48583984 13.60400391 C-75.49707886 12.81834549 -75.50831787 12.03268707 -75.51989746 11.22322083 C-75.46079049 6.04809678 -74.40600503 3.11379628 -71 -1 C-66.8237315 -3.53952355 -62.32002581 -3.36673323 -57.5625 -3.375 C-56.45551758 -3.41173828 -56.45551758 -3.41173828 -55.32617188 -3.44921875 C-50.09377698 -3.47712486 -47.14539671 -2.44927109 -43 1 C-41.125 3.75 -41.125 3.75 -40 6 C-39.05125 5.0925 -38.1025 4.185 -37.125 3.25 C-26.39786887 -5.82184236 -12.2921826 -6.72196016 0 0 Z " fill="#FDFEFE" transform="translate(1083,488)"/>
<path d="M0 0 C8.25936469 6.68302471 14.36819291 16.44764749 16 27 C17.23349404 42.30119987 15.32078616 55.16321139 5.11328125 67.23046875 C-0.96393164 73.59422999 -7.77581256 77.93608703 -16 81 C-16.99 81 -17.98 81 -19 81 C-26.10999411 56.92707577 -26.10999411 56.92707577 -26 49 C-18.64043089 50.92260076 -12.11475515 53.68781973 -5.375 57.1875 C-4.46621094 57.65091797 -3.55742188 58.11433594 -2.62109375 58.59179688 C-0.41016591 59.72053372 1.79662164 60.85661662 4 62 C3.53907531 60.38131665 3.07169672 58.76447004 2.6015625 57.1484375 C2.34197754 56.24786621 2.08239258 55.34729492 1.81494141 54.41943359 C0.75057432 51.25949415 -0.2367143 49.89066916 -3 48 C-5.95240407 46.53912186 -8.94382756 45.2276932 -12 44 C-8.25764681 41.55010899 -4.55774581 41.76913857 -0.25 41.875 C0.44738281 41.88402344 1.14476562 41.89304687 1.86328125 41.90234375 C3.57566958 41.92580112 5.28788004 41.96166896 7 42 C5.02760961 37.51903543 2.3743713 35.15274178 -2 33 C-4.96888711 32.71268834 -7.11264454 32.6721318 -10 33 C-10.82757812 33.07992187 -11.65515625 33.15984375 -12.5078125 33.2421875 C-14.67655856 33.46654054 -16.83787682 33.71972477 -19 34 C-15.95282006 28.59818102 -11.85648654 25.04524994 -7.14453125 21.05078125 C-4.7754782 19.10490824 -4.7754782 19.10490824 -4 16 C-12.50734639 15.8852971 -12.50734639 15.8852971 -19.875 19.5625 C-23.31663309 23.0379575 -26.21868393 26.98593945 -29 31 C-30.97920571 29.09430765 -32.49529479 27.31532779 -34.125 25.0625 C-37.83729285 20.60552565 -42.83380501 18.29698047 -48.58203125 17.7578125 C-50.7228662 17.75106971 -52.86345656 17.86434645 -55 18 C-54.51789062 18.54269531 -54.03578125 19.08539062 -53.5390625 19.64453125 C-52.90742187 20.35996094 -52.27578125 21.07539062 -51.625 21.8125 C-50.99851562 22.52019531 -50.37203125 23.22789062 -49.7265625 23.95703125 C-48 26 -48 26 -46 29 C-46.6290625 28.95359375 -47.258125 28.9071875 -47.90625 28.859375 C-54.12148746 28.59728667 -58.88988204 29.25508512 -64 33 C-64.66 33.99 -65.32 34.98 -66 36 C-64.83082031 36.19335938 -63.66164063 36.38671875 -62.45703125 36.5859375 C-60.90880468 36.84866686 -59.3606303 37.11170392 -57.8125 37.375 C-56.65911133 37.56449219 -56.65911133 37.56449219 -55.48242188 37.7578125 C-51.42338062 38.45464362 -47.77045984 39.2621127 -44 41 C-44.57878906 41.28359375 -45.15757812 41.5671875 -45.75390625 41.859375 C-51.96179206 45.01190136 -57.09064299 48.13596448 -61 54 C-61.82611915 56.64001666 -62.38377697 59.29916662 -63 62 C-61.98421875 61.48050781 -60.9684375 60.96101562 -59.921875 60.42578125 C-37.42668284 49 -37.42668284 49 -33 49 C-33.59501909 55.66691848 -34.81237006 61.90414462 -36.5 68.375 C-36.72558594 69.26316406 -36.95117188 70.15132812 -37.18359375 71.06640625 C-38.04030377 74.41720697 -38.90589405 77.71768216 -40 81 C-47.91845303 79.2309839 -53.70592881 76.08408111 -60 71 C-60.65097656 70.47535156 -61.30195312 69.95070313 -61.97265625 69.41015625 C-67.34056084 64.58494091 -70.12653133 58.52980186 -73 52 C-73.37640625 51.27167969 -73.7528125 50.54335938 -74.140625 49.79296875 C-77.33822677 39.400763 -76.39590449 24.98978026 -71.4765625 15.3984375 C-70.74566406 14.21121094 -70.74566406 14.21121094 -70 13 C-69.55398438 12.27039063 -69.10796875 11.54078125 -68.6484375 10.7890625 C-61.82565832 0.84076437 -51.97769485 -6.54619215 -40.1875 -9.3125 C-25.19226926 -11.72957162 -12.35862133 -8.91970061 0 0 Z " fill="#5EE1E6" transform="translate(952,504)"/>
<path d="M0 0 C0.82886719 -0.01546875 1.65773438 -0.0309375 2.51171875 -0.046875 C7.96278044 -0.01221006 11.26355163 0.7739671 15.5 4.5 C19.02034568 8.72590019 18.95721255 12.68046386 18.875 17.9375 C18.88660156 18.67548828 18.89820313 19.41347656 18.91015625 20.17382812 C18.8845144 24.98167478 18.28176803 28.42124729 15.5 32.5 C10.6685834 36.82095443 6.67159 37.0953542 0.5 36.9375 C-0.28117187 36.94458984 -1.06234375 36.95167969 -1.8671875 36.95898438 C-6.77223772 36.90530958 -10.30123662 36.27803378 -14.5 33.5 C-19.11207921 27.91371154 -18.9413368 20.73108912 -18.93359375 13.83203125 C-18.26214996 8.6721974 -16.77508834 5.65218826 -12.90625 2.15625 C-8.45195298 -0.00960084 -4.88487948 -0.09116416 0 0 Z " fill="#FCFEFE" transform="translate(1225.5,551.5)"/>
<path d="M0 0 C1.66666667 0.33333333 3.33333333 0.66666667 5 1 C5.33 0.67 5.66 0.34 6 0 C8.9375 -0.1875 8.9375 -0.1875 12 0 C15.32343509 3.32343509 14.32965335 7.57214213 14.37109375 12.09375 C14.37085205 13.08761719 14.37085205 13.08761719 14.37060547 14.1015625 C14.37493815 16.09652157 14.41184433 18.09132385 14.44921875 20.0859375 C14.47171925 27.4961023 14.2475799 32.81216755 10 39 C6.59413119 41.97750181 2.80515858 42.90282569 -1.625 43.4375 C-6.31143553 42.8299991 -9.65338702 41.34661298 -13 38 C-12.67028521 34.70285207 -12.3773161 33.3773161 -10 31 C-7.75 31.3125 -7.75 31.3125 -5 32 C-1.89160979 32.7269226 -1.89160979 32.7269226 1 33 C1.66 32.34 2.32 31.68 3 31 C3 30.01 3 29.02 3 28 C2.34 28.33 1.68 28.66 1 29 C-4.00596887 29.50059689 -6.01783358 29.63006902 -10.3125 26.875 C-14.0314174 22.89662325 -15.7591463 19.92682961 -16.4375 14.5 C-15.75803827 9.06430613 -13.02382599 5.77758435 -9.125 2.125 C-5.58808234 -0.28010401 -4.17226139 -0.53262911 0 0 Z " fill="#F8FDFE" transform="translate(1200,630)"/>
<path d="M0 0 C0.99 0.66 1.98 1.32 3 2 C3.66 1.34 4.32 0.68 5 0 C10.33333333 -0.33333333 10.33333333 -0.33333333 13 1 C13.09932276 5.44736742 13.17168003 9.89413713 13.21972656 14.34228516 C13.23976791 15.85346736 13.26700905 17.36457272 13.30175781 18.87548828 C13.35061109 21.05520643 13.37304224 23.23389431 13.390625 25.4140625 C13.41157227 26.7232666 13.43251953 28.0324707 13.45410156 29.38134766 C12.82272944 34.41263671 10.70980158 37.4974471 6.9375 40.8125 C2.87259784 43.30389164 -1.3546418 43.65272369 -6 43 C-8.57660544 41.89089728 -10.64972981 40.56684679 -13 39 C-13.23053497 36.15673536 -13.35903101 34.53854651 -11.75 32.125 C-10 31 -10 31 -8.1875 31.25 C-7.465625 31.4975 -6.74375 31.745 -6 32 C-2.02276796 32.74230975 -2.02276796 32.74230975 2 33 C2.33 31.35 2.66 29.7 3 28 C2.01 28.33 1.02 28.66 0 29 C-3.45861372 29.46558262 -5.92442003 29.68386976 -8.94140625 27.765625 C-15.69348453 22.07076148 -15.69348453 22.07076148 -16.3359375 17.73046875 C-16.42461412 11.95762061 -16.03735562 8.46234042 -12 4 C-7.95337267 0.65713394 -5.26743477 -0.70232464 0 0 Z " fill="#FAFEFE" transform="translate(1081,630)"/>
<path d="M0 0 C2.9375 -0.375 2.9375 -0.375 6 0 C7.875 1.5 7.875 1.5 9 3 C9.37125 2.505 9.7425 2.01 10.125 1.5 C12 0 12 0 14.875 -0.4375 C18.64875512 0.09082572 20.26191346 1.42297737 23 4 C23.845625 3.319375 24.69125 2.63875 25.5625 1.9375 C29 0 29 0 32.5625 -0.0625 C36.60417687 1.18674558 38.32357956 2.77255182 41 6 C42.82671197 9.65342394 42.18470722 13.97839159 42.1875 18 C42.19974609 18.928125 42.21199219 19.85625 42.22460938 20.8125 C42.22654297 21.699375 42.22847656 22.58625 42.23046875 23.5 C42.23457764 24.3146875 42.23868652 25.129375 42.24291992 25.96875 C42 28 42 28 40 30 C37 30.25 37 30.25 34 30 C31.06552643 27.06552643 31.53841577 23.81740544 31.375 19.875 C31.31699219 18.74384766 31.31699219 18.74384766 31.2578125 17.58984375 C31.16348969 15.72696816 31.08065338 13.86351745 31 12 C29.05396726 11.40929986 29.05396726 11.40929986 27 11 C24.88074396 13.11925604 25.58168983 17.6196093 25.4375 20.5625 C25.39431641 21.36880859 25.35113281 22.17511719 25.30664062 23.00585938 C25.20024738 25.00368805 25.09959112 27.0018207 25 29 C22.23749964 30.38125018 20.05268901 30.19079306 17 30 C14.06552643 27.06552643 14.53841577 23.81740544 14.375 19.875 C14.33632813 19.12089844 14.29765625 18.36679687 14.2578125 17.58984375 C14.16348969 15.72696816 14.08065338 13.86351745 14 12 C12.68 11.67 11.36 11.34 10 11 C8.15892054 14.68215893 8.584971 19.24191774 8.39453125 23.32226562 C8.10073855 28.89926145 8.10073855 28.89926145 7 30 C3.5625 30.1875 3.5625 30.1875 0 30 C-2.64106598 27.35893402 -2.25746688 26.12217546 -2.265625 22.44140625 C-2.26820313 21.33345703 -2.27078125 20.22550781 -2.2734375 19.08398438 C-2.26570312 17.92189453 -2.25796875 16.75980469 -2.25 15.5625 C-2.25773438 14.40427734 -2.26546875 13.24605469 -2.2734375 12.05273438 C-2.27085937 10.94349609 -2.26828125 9.83425781 -2.265625 8.69140625 C-2.26336914 7.67248291 -2.26111328 6.65355957 -2.25878906 5.60375977 C-2 3 -2 3 0 0 Z " fill="#F9FDFE" transform="translate(907,630)"/>
<path d="M0 0 C4.46904058 2.57989307 7.68627932 5.27601121 9.78515625 10.0859375 C10.52864829 15.71634073 10.58674825 20.42337631 8.09765625 25.5859375 C4.35158387 29.63574547 1.18455857 32.72902951 -4.484375 33.32421875 C-10.29612111 33.4938396 -13.67464479 33.08563658 -18.21484375 29.0859375 C-22.96104783 23.69835449 -23.6847407 20.31617432 -23.625 13.20703125 C-22.97923222 8.29304598 -20.81009669 5.38365227 -17.21484375 2.0859375 C-12.01799207 -1.60960147 -5.94136935 -2.4519937 0 0 Z " fill="#5EE1E6" transform="translate(1490.21484375,519.9140625)"/>
<path d="M0 0 C4.46904058 2.57989307 7.68627932 5.27601121 9.78515625 10.0859375 C10.52864829 15.71634073 10.58674825 20.42337631 8.09765625 25.5859375 C4.35158387 29.63574547 1.18455857 32.72902951 -4.484375 33.32421875 C-10.29612111 33.4938396 -13.67464479 33.08563658 -18.21484375 29.0859375 C-22.96104783 23.69835449 -23.6847407 20.31617432 -23.625 13.20703125 C-22.97923222 8.29304598 -20.81009669 5.38365227 -17.21484375 2.0859375 C-12.01799207 -1.60960147 -5.94136935 -2.4519937 0 0 Z " fill="#5EE1E6" transform="translate(327.21484375,519.9140625)"/>
<path d="M0 0 C2.375 1 2.375 1 4 2 C4.66 1.34 5.32 0.68 6 0 C9 -0.25 9 -0.25 12 0 C14.68487165 2.68487165 14.25769449 4.06476981 14.265625 7.8125 C14.26949219 9.54886719 14.26949219 9.54886719 14.2734375 11.3203125 C14.26570313 12.53460937 14.25796875 13.74890625 14.25 15 C14.25773437 16.21429687 14.26546875 17.42859375 14.2734375 18.6796875 C14.27085938 19.83726562 14.26828125 20.99484375 14.265625 22.1875 C14.26336914 23.25355469 14.26111328 24.31960938 14.25878906 25.41796875 C14 28 14 28 12 30 C8.5 30.25 8.5 30.25 5 30 C4.34 29.34 3.68 28.68 3 28 C2.01 28.66 1.02 29.32 0 30 C-3.47162189 30.53409568 -5.88847486 30.68883248 -8.94140625 28.796875 C-12.82912443 25.58281154 -15.60383675 22.79156892 -16.3359375 17.6328125 C-16.42531743 11.89462069 -16.01244424 8.43480679 -12 4 C-7.94047599 0.64648017 -5.27599987 -0.6881739 0 0 Z " fill="#F8FDFD" transform="translate(1416,630)"/>
<path d="M0 0 C2.375 1 2.375 1 4 2 C4.66 1.34 5.32 0.68 6 0 C9 -0.25 9 -0.25 12 0 C14.68487165 2.68487165 14.25769449 4.06476981 14.265625 7.8125 C14.26949219 9.54886719 14.26949219 9.54886719 14.2734375 11.3203125 C14.26570312 12.53460937 14.25796875 13.74890625 14.25 15 C14.25773438 16.21429687 14.26546875 17.42859375 14.2734375 18.6796875 C14.27085937 19.83726562 14.26828125 20.99484375 14.265625 22.1875 C14.26336914 23.25355469 14.26111328 24.31960938 14.25878906 25.41796875 C14 28 14 28 12 30 C8.5 30.25 8.5 30.25 5 30 C4.34 29.34 3.68 28.68 3 28 C2.01 28.66 1.02 29.32 0 30 C-3.47162189 30.53409568 -5.88847486 30.68883248 -8.94140625 28.796875 C-12.82912443 25.58281154 -15.60383675 22.79156892 -16.3359375 17.6328125 C-16.42531743 11.89462069 -16.01244424 8.43480679 -12 4 C-7.94047599 0.64648017 -5.27599987 -0.6881739 0 0 Z " fill="#F8FDFD" transform="translate(969,630)"/>
<path d="M0 0 C1.62039951 0.20665965 3.24565633 0.38320117 4.875 0.5 C5.205 0.17 5.535 -0.16 5.875 -0.5 C8.8125 -0.6875 8.8125 -0.6875 11.875 -0.5 C14.55987165 2.18487165 14.13269449 3.56476981 14.140625 7.3125 C14.14449219 9.04886719 14.14449219 9.04886719 14.1484375 10.8203125 C14.14070313 12.03460937 14.13296875 13.24890625 14.125 14.5 C14.13273437 15.71429687 14.14046875 16.92859375 14.1484375 18.1796875 C14.14585938 19.33726562 14.14328125 20.49484375 14.140625 21.6875 C14.13836914 22.75355469 14.13611328 23.81960938 14.13378906 24.91796875 C13.875 27.5 13.875 27.5 11.875 29.5 C8.47902937 29.71676408 6.11721555 29.58073852 2.875 28.5 C1.45179785 28.70961892 0.03485709 28.96408493 -1.375 29.25 C-5.02996147 29.71431107 -6.94422093 29.46853374 -10 27.375 C-13.40481375 24.48367324 -15.75928348 21.96401503 -16.4375 17.39453125 C-16.79984229 10.6345829 -14.52486164 7.19075396 -10.0625 2.1875 C-6.70998732 -0.7324304 -4.19209229 -0.53776111 0 0 Z " fill="#FAFEFE" transform="translate(1331.125,630.5)"/>
<path d="M0 0 C3.10722427 0.07798129 3.10722427 0.07798129 6.5625 -0.5625 C10 -1 10 -1 12 0 C12.02465881 3.96930989 12.04284023 7.93859034 12.05493164 11.90795898 C12.05997057 13.25920386 12.06680177 14.61044326 12.07543945 15.96166992 C12.08752419 17.90020434 12.09269828 19.838778 12.09765625 21.77734375 C12.10551147 23.52905884 12.10551147 23.52905884 12.11352539 25.31616211 C12 28 12 28 11 29 C7.5625 29.1875 7.5625 29.1875 4 29 C3.34 28.34 2.68 27.68 2 27 C1.01 27.66 0.02 28.32 -1 29 C-4.6622912 29.64628668 -6.98588209 29.65167144 -10.1640625 27.609375 C-17.21456866 21.71258803 -17.21456866 21.71258803 -18 17 C-18.22560951 11.82079029 -17.52993387 8.11572993 -14.1875 4.0625 C-9.64680366 -0.87506954 -6.53169302 -1.18758055 0 0 Z " fill="#FAFEFE" transform="translate(1269,631)"/>
<path d="M0 0 C3.4375 1.6875 3.4375 1.6875 6 4 C6.78375 4.680625 7.5675 5.36125 8.375 6.0625 C10.8797146 10.59025331 10.63333648 14.94093871 10 20 C8.40290501 23.75317323 6.06353956 26.31940288 3 29 C-1.69309111 30.5643637 -6.11470629 30.81865276 -11 30 C-15.16100925 27.62514745 -18.04628861 24.58951898 -20.5 20.5 C-21.46561456 15.6719272 -21.68804248 12.32315861 -19.375 7.875 C-13.39747687 0.63905095 -9.52520922 -1.53311862 0 0 Z " fill="#FAFEFE" transform="translate(1734,630)"/>
<path d="M0 0 C4.18120121 3.58388675 7.93425202 7.34252017 8.5 13 C8.01143095 19.05825627 5.9733092 23.0891908 1.6875 27.375 C-3.51063188 29.60277081 -8.25106843 29.87263297 -13.8125 28.875 C-18.13073963 26.56298914 -20.99315778 23.42335555 -22.8125 18.875 C-23.53795222 14.31999712 -23.867977 9.80775658 -21.609375 5.671875 C-15.91704128 -1.17042513 -8.49191476 -3.39676591 0 0 Z " fill="#FAFEFE" transform="translate(1173.8125,631.125)"/>
<path d="M0 0 C6.57692308 0.57692308 6.57692308 0.57692308 8 2 C8.15620555 3.41327947 8.25056173 4.8335459 8.31640625 6.25390625 C8.37924805 7.53491211 8.37924805 7.53491211 8.44335938 8.84179688 C8.48267578 9.73962891 8.52199219 10.63746094 8.5625 11.5625 C8.60568359 12.46419922 8.64886719 13.36589844 8.69335938 14.29492188 C8.79978142 16.52978485 8.90179988 18.76476308 9 21 C9.93457031 20.18660156 10.86914062 19.37320313 11.83203125 18.53515625 C13.97216287 16.67250377 14.83440332 16.03465977 17.6875 15.4375 C20 16 20 16 21.875 17.75 C23 20 23 20 23 22 C21.59538911 24.80922178 19.51904667 26.19145367 17 28 C18.5830577 32.2742558 21.50568404 34.26531794 25 37 C24.38722388 39.96175123 23.74627478 41.38058783 22 44 C18.81021231 44.5501458 17.44737616 44.30605838 14.76171875 42.46875 C13.73498047 41.49421875 13.73498047 41.49421875 12.6875 40.5 C11.99011719 39.8503125 11.29273438 39.200625 10.57421875 38.53125 C10.05472656 38.0259375 9.53523438 37.520625 9 37 C8.690625 37.969375 8.38125 38.93875 8.0625 39.9375 C7 43 7 43 6 44 C2.5 44.125 2.5 44.125 -1 44 C-3.14181645 41.85818355 -2.16423544 36.97422074 -2.16796875 34.00390625 C-2.17129715 33.1000267 -2.17462555 32.19614716 -2.17805481 31.26487732 C-2.18312796 29.34903473 -2.18546302 27.43318328 -2.18530273 25.51733398 C-2.18748813 22.57846582 -2.20563665 19.63997348 -2.22460938 16.70117188 C-2.22754337 14.84375129 -2.22952813 12.98632891 -2.23046875 11.12890625 C-2.23765427 10.24554092 -2.24483978 9.3621756 -2.25224304 8.45204163 C-2.22882139 2.22882139 -2.22882139 2.22882139 0 0 Z " fill="#F9FEFE" transform="translate(1606,616)"/>
<path d="M0 0 C6.57692308 0.57692308 6.57692308 0.57692308 8 2 C8.15620555 3.41327947 8.25056173 4.8335459 8.31640625 6.25390625 C8.37924805 7.53491211 8.37924805 7.53491211 8.44335938 8.84179688 C8.48267578 9.73962891 8.52199219 10.63746094 8.5625 11.5625 C8.60568359 12.46419922 8.64886719 13.36589844 8.69335938 14.29492188 C8.79978142 16.52978485 8.90179988 18.76476308 9 21 C9.93457031 20.18660156 10.86914062 19.37320313 11.83203125 18.53515625 C13.97216287 16.67250377 14.83440332 16.03465977 17.6875 15.4375 C20 16 20 16 21.875 17.75 C23 20 23 20 23 22 C21.59538911 24.80922178 19.51904667 26.19145367 17 28 C18.5830577 32.2742558 21.50568404 34.26531794 25 37 C24.38722388 39.96175123 23.74627478 41.38058783 22 44 C18.81021231 44.5501458 17.44737616 44.30605838 14.76171875 42.46875 C13.73498047 41.49421875 13.73498047 41.49421875 12.6875 40.5 C11.99011719 39.8503125 11.29273438 39.200625 10.57421875 38.53125 C10.05472656 38.0259375 9.53523438 37.520625 9 37 C8.690625 37.969375 8.38125 38.93875 8.0625 39.9375 C7 43 7 43 6 44 C2.5 44.125 2.5 44.125 -1 44 C-3.14181645 41.85818355 -2.16423544 36.97422074 -2.16796875 34.00390625 C-2.17129715 33.1000267 -2.17462555 32.19614716 -2.17805481 31.26487732 C-2.18312796 29.34903473 -2.18546302 27.43318328 -2.18530273 25.51733398 C-2.18748813 22.57846582 -2.20563665 19.63997348 -2.22460938 16.70117188 C-2.22754337 14.84375129 -2.22952813 12.98632891 -2.23046875 11.12890625 C-2.23765427 10.24554092 -2.24483978 9.3621756 -2.25224304 8.45204163 C-2.22882139 2.22882139 -2.22882139 2.22882139 0 0 Z " fill="#F9FEFE" transform="translate(1288,616)"/>
<path d="M0 0 C3 0.25 3 0.25 5 2.25 C5.31884766 4.31298828 5.31884766 4.31298828 5.4140625 6.8203125 C5.45273437 7.71621094 5.49140625 8.61210938 5.53125 9.53515625 C5.5621875 10.47230469 5.593125 11.40945313 5.625 12.375 C5.66367187 13.31988281 5.70234375 14.26476562 5.7421875 15.23828125 C5.83661346 17.57532375 5.92218394 19.91235501 6 22.25 C6.4019458 21.82340088 6.8038916 21.39680176 7.21801758 20.95727539 C7.75064209 20.40547607 8.2832666 19.85367676 8.83203125 19.28515625 C9.35772705 18.73480713 9.88342285 18.18445801 10.42504883 17.61743164 C12 16.25 12 16.25 14.6875 15.6875 C17.43674264 16.3562347 18.50080685 16.83463325 20 19.25 C20 21.6875 20 21.6875 19 24.25 C16.4375 26.5625 16.4375 26.5625 14 28.25 C15.09898702 31.54696105 15.94597387 32.29670589 18.5625 34.4375 C19.20316406 34.96730469 19.84382812 35.49710938 20.50390625 36.04296875 C20.99761719 36.44128906 21.49132812 36.83960938 22 37.25 C21.25 42 21.25 42 19 44.25 C15.63072976 44.32835512 13.64766537 43.79253332 11.05078125 41.6171875 C9.30948101 39.87235521 7.63090943 38.09804235 6 36.25 C5.690625 37.384375 5.38125 38.51875 5.0625 39.6875 C4 43.25 4 43.25 3 44.25 C0.66702567 44.29092937 -1.66705225 44.29241723 -4 44.25 C-5.68319638 40.88360724 -5.16316848 37.07759311 -5.16796875 33.375 C-5.17129715 32.49473145 -5.17462555 31.61446289 -5.17805481 30.70751953 C-5.18312167 28.84473189 -5.18546321 26.98193515 -5.18530273 25.11914062 C-5.18749114 22.26156774 -5.20565453 19.40437963 -5.22460938 16.546875 C-5.2275429 14.73958466 -5.22952797 12.93229248 -5.23046875 11.125 C-5.23765427 10.26664551 -5.24483978 9.40829102 -5.25224304 8.52392578 C-5.2209088 0.43507573 -5.2209088 0.43507573 0 0 Z " fill="#FBFEFE" transform="translate(992,615.75)"/>
<path d="M0 0 C3 1.3125 3 1.3125 5 3 C5.5775 3.391875 6.155 3.78375 6.75 4.1875 C8.75835114 7.09960916 9.30968323 10.49250081 9 14 C8.01953125 16.23828125 8.01953125 16.23828125 6 18 C3.12961948 18.29561076 0.66245255 18.37943016 -2.1875 18.25 C-2.93708984 18.23195313 -3.68667969 18.21390625 -4.45898438 18.1953125 C-6.3065371 18.14824109 -8.15343159 18.07649766 -10 18 C-9.34 18.99 -8.68 19.98 -8 21 C-4.93942514 21.28919919 -4.93942514 21.28919919 -1.5 21.0625 C2.03125 20.91015625 2.03125 20.91015625 5 21 C7 23 7 23 7.125 25.625 C7.08375 26.40875 7.0425 27.1925 7 28 C1.53734259 31.54334535 -3.68682528 31.84677455 -10 31 C-14.45146251 28.81473658 -17.18885145 26.0605479 -20 22 C-21.78983568 16.63049295 -21.88431724 11.80264667 -19.375 6.6875 C-13.5678248 0.1162228 -8.52495079 -1.09327613 0 0 Z " fill="#F9FEFE" transform="translate(1526,630)"/>
<path d="M0 0 C3.70162323 1.54234301 6.19501491 3.39002982 8 7 C8.34655807 10.03238313 8.44941456 12.97666567 8 16 C6 18 6 18 2.3046875 18.1953125 C0.82799892 18.182009 -0.64862358 18.15814835 -2.125 18.125 C-2.87910156 18.11597656 -3.63320312 18.10695313 -4.41015625 18.09765625 C-6.27357254 18.0740687 -8.13682593 18.03819719 -10 18 C-9.34 18.99 -8.68 19.98 -8 21 C-4.93942514 21.28919919 -4.93942514 21.28919919 -1.5 21.0625 C2.03125 20.91015625 2.03125 20.91015625 5 21 C7 23 7 23 7.125 25.625 C7.08375 26.40875 7.0425 27.1925 7 28 C1.53205938 31.5467723 -3.68258774 31.93955848 -10 31 C-14.73699581 29.25274745 -17.35773657 27.04367808 -20 22.75 C-21.57374258 16.84846532 -22.11263884 12.26807148 -19.375 6.6875 C-13.56152132 0.10908992 -8.52977405 -1.08087213 0 0 Z " fill="#F9FEFE" transform="translate(1654,630)"/>
<path d="M0 0 C3.70162323 1.54234301 6.19501491 3.39002982 8 7 C8.34655807 10.03238313 8.44941456 12.97666567 8 16 C6 18 6 18 2.3046875 18.1953125 C0.82799892 18.182009 -0.64862358 18.15814835 -2.125 18.125 C-2.87910156 18.11597656 -3.63320312 18.10695313 -4.41015625 18.09765625 C-6.27357254 18.0740687 -8.13682593 18.03819719 -10 18 C-9.34 18.99 -8.68 19.98 -8 21 C-4.93942514 21.28919919 -4.93942514 21.28919919 -1.5 21.0625 C2.03125 20.91015625 2.03125 20.91015625 5 21 C7 23 7 23 7.125 25.625 C7.08375 26.40875 7.0425 27.1925 7 28 C1.53205938 31.5467723 -3.68258774 31.93955848 -10 31 C-14.73699581 29.25274745 -17.35773657 27.04367808 -20 22.75 C-21.57374258 16.84846532 -22.11263884 12.26807148 -19.375 6.6875 C-13.56152132 0.10908992 -8.52977405 -1.08087213 0 0 Z " fill="#F9FEFE" transform="translate(1494,630)"/>
<path d="M0 0 C2.93784444 1.22135106 3.95056561 2.99601703 5.7109375 5.6171875 C6.30132813 6.47828125 6.89171875 7.339375 7.5 8.2265625 C8.99894767 10.72234729 10.09366992 13.13599554 11.0859375 15.8671875 C11.7459375 15.8671875 12.4059375 15.8671875 13.0859375 15.8671875 C13.34632812 15.15046875 13.60671875 14.43375 13.875 13.6953125 C15.14269588 10.73462922 16.64105279 8.27151716 18.4609375 5.6171875 C19.04617188 4.74578125 19.63140625 3.874375 20.234375 2.9765625 C22.22503506 0.70872192 23.10903227 0.07374827 26.0859375 -0.1328125 C28.3359375 0.9921875 28.3359375 0.9921875 30.0859375 2.8671875 C30.53398781 6.78793022 29.90522501 8.69604532 27.49609375 11.765625 C26.95895752 12.48564697 26.42182129 13.20566895 25.8684082 13.94750977 C25.30081787 14.70475342 24.73322754 15.46199707 24.1484375 16.2421875 C18.08228876 24.71809273 16.68994921 30.55682563 17.0859375 40.8671875 C16.0859375 41.8671875 16.0859375 41.8671875 14.23828125 41.96484375 C12.1875 41.93229167 10.13671875 41.89973958 8.0859375 41.8671875 C7.0859375 39.8671875 7.0859375 39.8671875 7.19140625 37.2421875 C7.43295298 27.30426506 4.12786993 21.809113 -1.6965332 13.99804688 C-2.50223755 12.91040039 -2.50223755 12.91040039 -3.32421875 11.80078125 C-3.82058838 11.16197021 -4.31695801 10.52315918 -4.82836914 9.86499023 C-6.19527439 7.34972473 -6.2369887 5.69039381 -5.9140625 2.8671875 C-3.96723999 0.78130624 -2.9060545 -0.2016446 0 0 Z " fill="#FBFEFE" transform="translate(1117.9140625,618.1328125)"/>
<path d="M0 0 C2.57421875 0.390625 2.57421875 0.390625 4.3046875 2.21875 C4.78550781 3.01796875 5.26632812 3.8171875 5.76171875 4.640625 C6.25027344 5.42953125 6.73882813 6.2184375 7.2421875 7.03125 C8.57421875 9.390625 8.57421875 9.390625 9.625 11.625 C10.45185963 13.56945917 10.45185963 13.56945917 12.57421875 14.390625 C12.68636719 13.66488281 12.79851562 12.93914063 12.9140625 12.19140625 C13.60383262 9.26498507 14.62932689 7.16774691 16.13671875 4.578125 C16.81927734 3.39283203 16.81927734 3.39283203 17.515625 2.18359375 C17.86496094 1.59191406 18.21429687 1.00023437 18.57421875 0.390625 C24.32421875 1.265625 24.32421875 1.265625 26.57421875 2.390625 C26.0386307 7.92713168 24.58111323 12.24081946 22.23046875 17.2578125 C21.9013147 17.97800568 21.57216064 18.69819885 21.23303223 19.44021606 C20.54124481 20.94971391 19.84517252 22.45725476 19.14501953 23.96289062 C18.06943806 26.27590576 17.00628595 28.59431529 15.9453125 30.9140625 C15.2702358 32.38313646 14.59447886 33.85189807 13.91796875 35.3203125 C13.5981604 36.01502655 13.27835205 36.7097406 12.94885254 37.42550659 C10.69261166 42.27223209 10.69261166 42.27223209 9.57421875 43.390625 C2.85421875 42.670625 2.85421875 42.670625 1.57421875 41.390625 C1.84604196 38.1287465 2.12851304 35.36816828 3.49267578 32.3762207 C5.04482752 28.96030803 5.97328615 26.60554734 4.77148438 22.94677734 C3.36681172 20.3887033 1.84345746 17.9890378 0.19921875 15.578125 C-0.88162115 13.93264822 -1.95244415 12.28053524 -3.01171875 10.62109375 C-3.49688965 9.90332764 -3.98206055 9.18556152 -4.48193359 8.44604492 C-5.42578125 6.390625 -5.42578125 6.390625 -5.20166016 4.2512207 C-4.01958133 1.41653766 -3.04380838 0.49014628 0 0 Z " fill="#FAFEFE" transform="translate(1684.42578125,629.609375)"/>
<path d="M0 0 C2.57421875 0.390625 2.57421875 0.390625 4.3046875 2.21875 C4.78550781 3.01796875 5.26632812 3.8171875 5.76171875 4.640625 C6.25027344 5.42953125 6.73882813 6.2184375 7.2421875 7.03125 C8.57421875 9.390625 8.57421875 9.390625 9.625 11.625 C10.45185963 13.56945917 10.45185963 13.56945917 12.57421875 14.390625 C12.68636719 13.66488281 12.79851562 12.93914063 12.9140625 12.19140625 C13.60383262 9.26498507 14.62932689 7.16774691 16.13671875 4.578125 C16.81927734 3.39283203 16.81927734 3.39283203 17.515625 2.18359375 C17.86496094 1.59191406 18.21429687 1.00023437 18.57421875 0.390625 C24.32421875 1.265625 24.32421875 1.265625 26.57421875 2.390625 C26.0386307 7.92713168 24.58111323 12.24081946 22.23046875 17.2578125 C21.9013147 17.97800568 21.57216064 18.69819885 21.23303223 19.44021606 C20.54124481 20.94971391 19.84517252 22.45725476 19.14501953 23.96289062 C18.06943806 26.27590576 17.00628595 28.59431529 15.9453125 30.9140625 C15.2702358 32.38313646 14.59447886 33.85189807 13.91796875 35.3203125 C13.5981604 36.01502655 13.27835205 36.7097406 12.94885254 37.42550659 C10.69261166 42.27223209 10.69261166 42.27223209 9.57421875 43.390625 C2.85421875 42.670625 2.85421875 42.670625 1.57421875 41.390625 C1.84604196 38.1287465 2.12851304 35.36816828 3.49267578 32.3762207 C5.04482752 28.96030803 5.97328615 26.60554734 4.77148438 22.94677734 C3.36681172 20.3887033 1.84345746 17.9890378 0.19921875 15.578125 C-0.88162115 13.93264822 -1.95244415 12.28053524 -3.01171875 10.62109375 C-3.49688965 9.90332764 -3.98206055 9.18556152 -4.48193359 8.44604492 C-5.42578125 6.390625 -5.42578125 6.390625 -5.20166016 4.2512207 C-4.01958133 1.41653766 -3.04380838 0.49014628 0 0 Z " fill="#FAFEFE" transform="translate(1222.42578125,629.609375)"/>
<path d="M0 0 C3 0.25 3 0.25 5 2.25 C5.28070703 4.96157201 5.46567766 7.59438996 5.5625 10.3125 C5.32425947 15.16937764 5.32425947 15.16937764 7 19.25 C9.45809998 19.5000773 9.45809998 19.5000773 12 19.25 C14.82977437 16.42022563 14.37939218 13.54559903 14.5 9.75 C14.72972973 2.52027027 14.72972973 2.52027027 17 0.25 C20 0 20 0 23 0.25 C25.68487165 2.93487165 25.25769449 4.31476981 25.265625 8.0625 C25.26949219 9.79886719 25.26949219 9.79886719 25.2734375 11.5703125 C25.26570313 12.78460937 25.25796875 13.99890625 25.25 15.25 C25.25773437 16.46429687 25.26546875 17.67859375 25.2734375 18.9296875 C25.27085938 20.08726562 25.26828125 21.24484375 25.265625 22.4375 C25.26336914 23.50355469 25.26111328 24.56960938 25.25878906 25.66796875 C25 28.25 25 28.25 23 30.25 C19.5 30.5 19.5 30.5 16 30.25 C15.34 29.59 14.68 28.93 14 28.25 C13.01 28.91 12.02 29.57 11 30.25 C7.54308484 30.7818331 5.12034956 30.92401311 2.05859375 29.08203125 C-1.55607715 26.14652607 -3.68826779 23.80654346 -5 19.25 C-5.27343458 16.34841484 -5.27964385 13.47500807 -5.25 10.5625 C-5.25773437 9.79099609 -5.26546875 9.01949219 -5.2734375 8.22460938 C-5.24623253 0.43718604 -5.24623253 0.43718604 0 0 Z " fill="#F9FDFE" transform="translate(1753,629.75)"/>
<path d="M0 0 C3 0.1875 3 0.1875 5 1.1875 C5 1.8475 5 2.5075 5 3.1875 C5.804375 2.445 5.804375 2.445 6.625 1.6875 C9.73633962 -0.2775566 11.36711987 -0.32110322 15 0.1875 C19.82206356 2.69497305 22.46726603 5.40224944 25 10.1875 C25.46573392 13.49898942 25.38060496 16.72705013 25.25 20.0625 C25.23195313 20.94164062 25.21390625 21.82078125 25.1953125 22.7265625 C25.14848379 24.8806832 25.07674994 27.03423774 25 29.1875 C22.23749964 30.56875018 20.05268901 30.37829306 17 30.1875 C14.07462081 27.26212081 14.57744333 24.05365292 14.4375 20.125 C14.67574053 15.26812236 14.67574053 15.26812236 13 11.1875 C10.54190002 10.9374227 10.54190002 10.9374227 8 11.1875 C5.07462081 14.11287919 5.57744333 17.32134708 5.4375 21.25 C5.11993243 29.06756757 5.11993243 29.06756757 4 30.1875 C0.5625 30.375 0.5625 30.375 -3 30.1875 C-5.68487165 27.50262835 -5.25769449 26.12273019 -5.265625 22.375 C-5.26820312 21.21742188 -5.27078125 20.05984375 -5.2734375 18.8671875 C-5.26570313 17.65289063 -5.25796875 16.43859375 -5.25 15.1875 C-5.25773437 13.97320313 -5.26546875 12.75890625 -5.2734375 11.5078125 C-5.27085938 10.35023438 -5.26828125 9.19265625 -5.265625 8 C-5.26336914 6.93394531 -5.26111328 5.86789062 -5.25878906 4.76953125 C-4.8692269 0.88272995 -3.844402 0.24027512 0 0 Z " fill="#F8FDFD" transform="translate(1036,629.8125)"/>
<path d="M0 0 C2 2 2 2 2.125 5.625 C2.08375 6.73875 2.0425 7.8525 2 9 C1.030625 9.268125 0.06125 9.53625 -0.9375 9.8125 C-1.948125 10.204375 -2.95875 10.59625 -4 11 C-4.33 11.99 -4.66 12.98 -5 14 C-3.576875 13.9690625 -3.576875 13.9690625 -2.125 13.9375 C1 14 1 14 3 15 C3.09765625 21.15234375 3.09765625 21.15234375 3 23 C2 24 2 24 -1.5625 24.0625 C-2.696875 24.041875 -3.83125 24.02125 -5 24 C-4.97679687 25.27617188 -4.95359375 26.55234375 -4.9296875 27.8671875 C-4.91093171 29.5364525 -4.89273131 31.2057238 -4.875 32.875 C-4.85824219 33.71675781 -4.84148437 34.55851563 -4.82421875 35.42578125 C-4.81777344 36.23144531 -4.81132813 37.03710938 -4.8046875 37.8671875 C-4.79421387 38.61081543 -4.78374023 39.35444336 -4.77294922 40.12060547 C-5 42 -5 42 -7 44 C-10 44.25 -10 44.25 -13 44 C-15 42 -15 42 -15.22705078 40.12060547 C-15.21657715 39.37697754 -15.20610352 38.63334961 -15.1953125 37.8671875 C-15.18886719 37.06152344 -15.18242188 36.25585938 -15.17578125 35.42578125 C-15.15902344 34.58402344 -15.14226562 33.74226562 -15.125 32.875 C-15.11597656 32.02550781 -15.10695313 31.17601562 -15.09765625 30.30078125 C-15.07405647 28.20040116 -15.03818483 26.10016556 -15 24 C-16.65 23.67 -18.3 23.34 -20 23 C-20 20.69 -20 18.38 -20 16 C-18.35 15.67 -16.7 15.34 -15 15 C-15.0928125 13.4221875 -15.0928125 13.4221875 -15.1875 11.8125 C-14.98714118 7.73853741 -14.52615379 6.13591505 -12 3 C-8.07569556 -0.16124524 -4.96712985 -0.46859716 0 0 Z " fill="#FBFEFE" transform="translate(1467,616)"/>
<path d="M0 0 C3 0.25 3 0.25 5 2.25 C5.26991906 4.93839385 5.08737357 7.54141936 5 10.25 C6.423125 10.2190625 6.423125 10.2190625 7.875 10.1875 C11 10.25 11 10.25 13 11.25 C13.09765625 17.40234375 13.09765625 17.40234375 13 19.25 C12 20.25 12 20.25 8.4375 20.3125 C7.303125 20.291875 6.16875 20.27125 5 20.25 C5.33 23.55 5.66 26.85 6 30.25 C7.98 30.91 9.96 31.57 12 32.25 C12.125 35.125 12.125 35.125 12 38.25 C10 40.25 10 40.25 6.1875 40.5625 C2.37522946 40.4656365 0.0412125 39.66508052 -3 37.25 C-5.49118953 33.5132157 -5.2065226 31.50548181 -5.125 27.0625 C-5.10695313 25.79019531 -5.08890625 24.51789062 -5.0703125 23.20703125 C-5.04710937 22.23121094 -5.02390625 21.25539063 -5 20.25 C-6.65 19.92 -8.3 19.59 -10 19.25 C-10.125 15.875 -10.125 15.875 -10 12.25 C-9.34 11.59 -8.68 10.93 -8 10.25 C-7.01 10.25 -6.02 10.25 -5 10.25 C-5.04125 8.97125 -5.0825 7.6925 -5.125 6.375 C-5.1953125 4.1953125 -5.1953125 4.1953125 -5 2.25 C-3 0.25 -3 0.25 0 0 Z " fill="#FAFEFE" transform="translate(1384,619.75)"/>
<path d="M0 0 C0.71285156 0.32097656 1.42570312 0.64195312 2.16015625 0.97265625 C2.28515625 3.34765625 2.28515625 3.34765625 2.16015625 5.97265625 C1.50015625 6.63265625 0.84015625 7.29265625 0.16015625 7.97265625 C-2.44140625 7.94921875 -2.44140625 7.94921875 -5.46484375 7.59765625 C-6.46773437 7.48679687 -7.470625 7.3759375 -8.50390625 7.26171875 C-9.66019531 7.11863281 -9.66019531 7.11863281 -10.83984375 6.97265625 C-10.83984375 7.63265625 -10.83984375 8.29265625 -10.83984375 8.97265625 C-9.59267578 9.22789062 -9.59267578 9.22789062 -8.3203125 9.48828125 C-7.23363281 9.730625 -6.14695312 9.97296875 -5.02734375 10.22265625 C-3.40892578 10.57070313 -3.40892578 10.57070313 -1.7578125 10.92578125 C1.5163939 12.10046306 2.53252318 12.94189123 4.16015625 15.97265625 C4.53003858 20.1153383 4.70176484 23.54148466 2.16015625 26.97265625 C-1.3822432 29.31181788 -4.60488667 29.27179726 -8.77734375 29.28515625 C-9.98261719 29.30191406 -11.18789062 29.31867187 -12.4296875 29.3359375 C-16.04058622 28.95127131 -17.92227465 28.07087008 -20.83984375 25.97265625 C-20.08984375 21.22265625 -20.08984375 21.22265625 -17.83984375 18.97265625 C-15.01953125 18.99609375 -15.01953125 18.99609375 -11.71484375 19.34765625 C-10.61914062 19.45851563 -9.5234375 19.569375 -8.39453125 19.68359375 C-7.55148437 19.77898438 -6.7084375 19.874375 -5.83984375 19.97265625 C-6.443125 19.8025 -7.04640625 19.63234375 -7.66796875 19.45703125 C-12.33412188 18.0421332 -15.74969627 16.96409674 -18.83984375 12.97265625 C-20.42923722 9.79386931 -20.25561086 7.47697905 -19.83984375 3.97265625 C-14.80317286 -2.42527704 -7.43297789 -2.68895899 0 0 Z " fill="#F9FDFE" transform="translate(1827.83984375,631.02734375)"/>
<path d="M0 0 C3 0.25 3 0.25 5 2.25 C5.24501495 4.68176397 5.37324921 7.00864884 5.4140625 9.4453125 C5.43342865 10.15275604 5.4527948 10.86019958 5.4727478 11.58908081 C5.53257652 13.85093085 5.57894101 16.1128317 5.625 18.375 C5.66317686 19.9075744 5.70222842 21.44012728 5.7421875 22.97265625 C5.83828039 26.73159624 5.92229849 30.49063668 6 34.25 C7.65 34.91 9.3 35.57 11 36.25 C11.125 39.125 11.125 39.125 11 42.25 C8.60713116 44.64286884 7.90552906 44.57050616 4.625 44.625 C1.24692628 44.55982816 0.28463276 44.46347457 -2.5 42.375 C-5.33306152 38.36149618 -5.16107743 35.02365893 -5.16796875 30.25 C-5.17129715 29.45851563 -5.17462555 28.66703125 -5.17805481 27.8515625 C-5.1831204 26.17708925 -5.18546325 24.5026059 -5.18530273 22.828125 C-5.18749127 20.26024865 -5.20565609 17.69280041 -5.22460938 15.125 C-5.22754291 13.50000147 -5.22952797 11.8750009 -5.23046875 10.25 C-5.23765427 9.47914063 -5.24483978 8.70828125 -5.25224304 7.9140625 C-5.22002208 0.43500184 -5.22002208 0.43500184 0 0 Z " fill="#F8FDFE" transform="translate(1543,615.75)"/>
<path d="M0 0 C6.57692308 0.57692308 6.57692308 0.57692308 8 2 C8.0883967 4.3756852 8.11530305 6.72208674 8.09765625 9.09765625 C8.0962413 9.80651474 8.09482635 10.51537323 8.09336853 11.24571228 C8.08775443 13.51801712 8.07519963 15.79022475 8.0625 18.0625 C8.05748681 19.59960796 8.05292359 21.13671745 8.04882812 22.67382812 C8.03778042 26.44925642 8.02050641 30.22461171 8 34 C8.639375 34.144375 9.27875 34.28875 9.9375 34.4375 C12 35 12 35 13 36 C13.125 39.5 13.125 39.5 13 43 C11.43022426 44.56977574 9.85803613 44.20737081 7.6875 44.25 C4.66473395 44.21636031 3.21517606 44.11296743 0.5 42.6875 C-2.76749021 39.01157352 -2.16124139 34.53122454 -2.16796875 29.90234375 C-2.17129715 29.11227432 -2.17462555 28.3222049 -2.17805481 27.50819397 C-2.18311351 25.83969708 -2.18546346 24.1711901 -2.18530273 22.50268555 C-2.18749471 19.94367988 -2.2056762 17.38510158 -2.22460938 14.82617188 C-2.22754236 13.20573064 -2.22952779 11.58528736 -2.23046875 9.96484375 C-2.23765427 9.19712143 -2.24483978 8.42939911 -2.25224304 7.63841248 C-2.22883191 2.22883191 -2.22883191 2.22883191 0 0 Z " fill="#F8FDFE" transform="translate(1573,616)"/>
<path d="M0 0 C2.4375 1.6875 2.4375 1.6875 4.4375 4.6875 C4.77707563 8.76240752 4.75082486 10.21751271 2.4375 13.6875 C-0.85984646 14.78661549 -3.29208745 14.8014456 -6.76171875 14.78515625 C-7.97021484 14.78193359 -9.17871094 14.77871094 -10.42382812 14.77539062 C-12.3177832 14.76282227 -12.3177832 14.76282227 -14.25 14.75 C-16.16135742 14.74323242 -16.16135742 14.74323242 -18.11132812 14.73632812 C-21.26176564 14.72452873 -24.41210949 14.70806597 -27.5625 14.6875 C-26.74160089 8.89338683 -25.39795573 6.12171199 -20.90625 2.265625 C-14.38841903 -2.48918612 -7.48202663 -2.75653613 0 0 Z " fill="#61E2E6" transform="translate(1738.5625,515.3125)"/>
<path d="M0 0 C2.4375 1.6875 2.4375 1.6875 4.4375 4.6875 C4.77707563 8.76240752 4.75082486 10.21751271 2.4375 13.6875 C-0.85984646 14.78661549 -3.29208745 14.8014456 -6.76171875 14.78515625 C-7.97021484 14.78193359 -9.17871094 14.77871094 -10.42382812 14.77539062 C-12.3177832 14.76282227 -12.3177832 14.76282227 -14.25 14.75 C-16.16135742 14.74323242 -16.16135742 14.74323242 -18.11132812 14.73632812 C-21.26176564 14.72452873 -24.41210949 14.70806597 -27.5625 14.6875 C-26.74160089 8.89338683 -25.39795573 6.12171199 -20.90625 2.265625 C-14.38841903 -2.48918612 -7.48202663 -2.75653613 0 0 Z " fill="#61E2E6" transform="translate(575.5625,515.3125)"/>
<path d="M0 0 C1.9375 1.625 1.9375 1.625 3.9375 3.625 C4.5069495 10.80006368 4.5069495 10.80006368 2.82958984 13.22998047 C0.01622684 15.30424579 -2.2401394 14.9632842 -5.69921875 14.91796875 C-6.99794922 14.90830078 -8.29667969 14.89863281 -9.63476562 14.88867188 C-11.00651639 14.86360585 -12.37826118 14.83821101 -13.75 14.8125 C-15.13344924 14.7974502 -16.51691401 14.7837623 -17.90039062 14.77148438 C-21.28815207 14.73607223 -24.67513139 14.68668054 -28.0625 14.625 C-26.86942 7.76107266 -22.87704555 3.67194222 -17.3125 -0.375 C-11.54293999 -2.15024923 -5.56636844 -2.49918583 0 0 Z " fill="#60E1E6" transform="translate(1159.0625,515.375)"/>
<path d="M0 0 C3.0625 0.25 3.0625 0.25 6.0625 2.25 C7.0525 1.59 8.0425 0.93 9.0625 0.25 C13.13740752 -0.08957563 14.59251271 -0.06332486 18.0625 2.25 C17.1875 9.125 17.1875 9.125 16.0625 10.25 C13.74432911 10.57097751 11.42470643 10.76220956 9.09375 10.96875 C7.07069407 11.04065837 7.07069407 11.04065837 6.0625 12.25 C5.8514782 15.08707088 5.68642187 17.90897646 5.5625 20.75 C5.19763514 29.11486486 5.19763514 29.11486486 4.0625 30.25 C0.625 30.4375 0.625 30.4375 -2.9375 30.25 C-5.62237165 27.56512835 -5.19519449 26.18523019 -5.203125 22.4375 C-5.20570312 21.27992188 -5.20828125 20.12234375 -5.2109375 18.9296875 C-5.20320313 17.71539063 -5.19546875 16.50109375 -5.1875 15.25 C-5.19523437 14.03570313 -5.20296875 12.82140625 -5.2109375 11.5703125 C-5.20835938 10.41273438 -5.20578125 9.25515625 -5.203125 8.0625 C-5.20086914 6.99644531 -5.19861328 5.93039062 -5.19628906 4.83203125 C-4.81132918 0.9911485 -3.7947874 0.32296063 0 0 Z " fill="#F6FDFD" transform="translate(1353.9375,629.75)"/>
<path d="M0 0 C3.0625 0.25 3.0625 0.25 6.0625 2.25 C7.0525 1.59 8.0425 0.93 9.0625 0.25 C12.625 0 12.625 0 16.0625 0.25 C16.7225 0.91 17.3825 1.57 18.0625 2.25 C17.48557692 8.82692308 17.48557692 8.82692308 16.0625 10.25 C13.74432911 10.57097751 11.42470643 10.76220956 9.09375 10.96875 C7.07069407 11.04065837 7.07069407 11.04065837 6.0625 12.25 C5.82548761 15.10877909 5.64030818 17.94883297 5.5 20.8125 C5.45681641 21.61880859 5.41363281 22.42511719 5.36914062 23.25585938 C5.26274738 25.25368805 5.16209112 27.2518207 5.0625 29.25 C2.29999964 30.63125018 0.11518901 30.44079306 -2.9375 30.25 C-5.62237165 27.56512835 -5.19519449 26.18523019 -5.203125 22.4375 C-5.20570312 21.27992188 -5.20828125 20.12234375 -5.2109375 18.9296875 C-5.20320313 17.71539063 -5.19546875 16.50109375 -5.1875 15.25 C-5.19523437 14.03570313 -5.20296875 12.82140625 -5.2109375 11.5703125 C-5.20835938 10.41273438 -5.20578125 9.25515625 -5.203125 8.0625 C-5.20086914 6.99644531 -5.19861328 5.93039062 -5.19628906 4.83203125 C-4.81132918 0.9911485 -3.7947874 0.32296063 0 0 Z " fill="#F8FDFE" transform="translate(1786.9375,629.75)"/>
<path d="M0 0 C3 0.25 3 0.25 5 2.25 C5.22705078 4.95556641 5.22705078 4.95556641 5.1953125 8.3515625 C5.18564453 10.16914062 5.18564453 10.16914062 5.17578125 12.0234375 C5.15902344 13.29445313 5.14226562 14.56546875 5.125 15.875 C5.11597656 17.15375 5.10695313 18.4325 5.09765625 19.75 C5.07402303 22.91685167 5.04107629 26.08333424 5 29.25 C2.23749964 30.63125018 0.05268901 30.44079306 -3 30.25 C-5.68487165 27.56512835 -5.25769449 26.18523019 -5.265625 22.4375 C-5.26820312 21.27992188 -5.27078125 20.12234375 -5.2734375 18.9296875 C-5.26570313 17.71539063 -5.25796875 16.50109375 -5.25 15.25 C-5.25773437 14.03570313 -5.26546875 12.82140625 -5.2734375 11.5703125 C-5.27085938 10.41273438 -5.26828125 9.25515625 -5.265625 8.0625 C-5.26336914 6.99644531 -5.26111328 5.93039062 -5.25878906 4.83203125 C-4.86964523 0.94940376 -3.82925686 0.31910474 0 0 Z " fill="#F8FDFE" transform="translate(1594,629.75)"/>
<path d="M0 0 C3 0.25 3 0.25 5 2.25 C5.22705078 4.95556641 5.22705078 4.95556641 5.1953125 8.3515625 C5.18564453 10.16914062 5.18564453 10.16914062 5.17578125 12.0234375 C5.15902344 13.29445313 5.14226562 14.56546875 5.125 15.875 C5.11597656 17.15375 5.10695313 18.4325 5.09765625 19.75 C5.07402303 22.91685167 5.04107629 26.08333424 5 29.25 C2.23749964 30.63125018 0.05268901 30.44079306 -3 30.25 C-5.68487165 27.56512835 -5.25769449 26.18523019 -5.265625 22.4375 C-5.26820313 21.27992188 -5.27078125 20.12234375 -5.2734375 18.9296875 C-5.26570312 17.71539063 -5.25796875 16.50109375 -5.25 15.25 C-5.25773438 14.03570313 -5.26546875 12.82140625 -5.2734375 11.5703125 C-5.27085937 10.41273438 -5.26828125 9.25515625 -5.265625 8.0625 C-5.26336914 6.99644531 -5.26111328 5.93039062 -5.25878906 4.83203125 C-4.86964523 0.94940376 -3.82925686 0.31910474 0 0 Z " fill="#F8FDFE" transform="translate(1022,629.75)"/>
<path d="M0 0 C0.721875 0.00257813 1.44375 0.00515625 2.1875 0.0078125 C2.909375 0.00523437 3.63125 0.00265625 4.375 0 C6.1875 0.1328125 6.1875 0.1328125 7.1875 1.1328125 C7.375 4.5703125 7.375 4.5703125 7.1875 8.1328125 C5.1875 10.1328125 5.1875 10.1328125 1.625 10.3203125 C-1.8125 10.1328125 -1.8125 10.1328125 -2.8125 9.1328125 C-2.9453125 7.3203125 -2.9453125 7.3203125 -2.9375 5.1328125 C-2.94007812 4.4109375 -2.94265625 3.6890625 -2.9453125 2.9453125 C-2.7645617 0.47859567 -2.46671683 0.1807508 0 0 Z " fill="#FBFEFE" transform="translate(1837.8125,649.8671875)"/>
<path d="M0 0 C3 0.25 3 0.25 5 2.25 C5.25 5.25 5.25 5.25 5 8.25 C3 10.25 3 10.25 0 10.5 C-3 10.25 -3 10.25 -5 8.25 C-5.25 5.25 -5.25 5.25 -5 2.25 C-3 0.25 -3 0.25 0 0 Z " fill="#5EE1E6" transform="translate(1729,639.75)"/>
<path d="M0 0 C3 0.25 3 0.25 5 2.25 C5.25 5.25 5.25 5.25 5 8.25 C3 10.25 3 10.25 0 10.5 C-3 10.25 -3 10.25 -5 8.25 C-5.25 5.25 -5.25 5.25 -5 2.25 C-3 0.25 -3 0.25 0 0 Z " fill="#5EE1E6" transform="translate(1166,639.75)"/>
<path d="M0 0 C0.721875 0.00257813 1.44375 0.00515625 2.1875 0.0078125 C2.909375 0.00523437 3.63125 0.00265625 4.375 0 C6.1875 0.1328125 6.1875 0.1328125 7.1875 1.1328125 C7.3125 4.6328125 7.3125 4.6328125 7.1875 8.1328125 C6.1875 9.1328125 6.1875 9.1328125 4.33984375 9.23046875 C2.2890625 9.19791667 0.23828125 9.16536458 -1.8125 9.1328125 C-3.17873674 6.40033902 -2.940926 4.15082348 -2.8125 1.1328125 C-1.8125 0.1328125 -1.8125 0.1328125 0 0 Z " fill="#F8FDFD" transform="translate(1591.8125,616.8671875)"/>
<path d="M0 0 C0.721875 0.00257813 1.44375 0.00515625 2.1875 0.0078125 C2.909375 0.00523437 3.63125 0.00265625 4.375 0 C6.1875 0.1328125 6.1875 0.1328125 7.1875 1.1328125 C7.3125 4.6328125 7.3125 4.6328125 7.1875 8.1328125 C6.1875 9.1328125 6.1875 9.1328125 4.33984375 9.23046875 C2.2890625 9.19791667 0.23828125 9.16536458 -1.8125 9.1328125 C-3.17873674 6.40033902 -2.940926 4.15082348 -2.8125 1.1328125 C-1.8125 0.1328125 -1.8125 0.1328125 0 0 Z " fill="#F8FDFD" transform="translate(1019.8125,616.8671875)"/>
<path d="M0 0 C3.29714793 0.32971479 4.6226839 0.6226839 7 3 C6.625 6.125 6.625 6.125 6 9 C0.56559513 10.32841008 0.56559513 10.32841008 -1.9375 8.875 C-3 7 -3 7 -2.8125 4.4375 C-2 2 -2 2 0 0 Z " fill="#67E3E7" transform="translate(1264,640)"/>
<path d="M0 0 C3.125 0.375 3.125 0.375 6 1 C6.625 4.375 6.625 4.375 7 8 C5 10 5 10 2.5 10.25 C0 10 0 10 -2 8 C-2.25 5 -2.25 5 -2 2 C-1.34 1.34 -0.68 0.68 0 0 Z " fill="#66E2E7" transform="translate(1412,640)"/>
<path d="M0 0 C3.29714793 0.32971479 4.6226839 0.6226839 7 3 C6.67028521 6.29714793 6.3773161 7.6226839 4 10 C0.70285207 9.67028521 -0.6226839 9.3773161 -3 7 C-2.67028521 3.70285207 -2.3773161 2.3773161 0 0 Z " fill="#65E2E7" transform="translate(1328,640)"/>
<path d="M0 0 C3.125 0.375 3.125 0.375 6 1 C6.625 4.375 6.625 4.375 7 8 C5 10 5 10 2.5 10.25 C0 10 0 10 -2 8 C-2.25 5 -2.25 5 -2 2 C-1.34 1.34 -0.68 0.68 0 0 Z " fill="#66E2E7" transform="translate(965,640)"/>
<path d="M0 0 C1 1 1 1 1.125 4 C1 7 1 7 0 8 C-2.9375 8.1875 -2.9375 8.1875 -6 8 C-6.66 7.34 -7.32 6.68 -8 6 C-7.75 2.9375 -7.75 2.9375 -7 0 C-4.31633121 -1.3418344 -2.84719317 -0.73004953 0 0 Z " fill="#62E2E7" transform="translate(1202,641)"/>
<path d="M0 0 C2.5 0.25 2.5 0.25 4.5 2.25 C4.75 4.75 4.75 4.75 4.5 7.25 C2.5 9.25 2.5 9.25 0 9.5 C-2.5 9.25 -2.5 9.25 -4.5 7.25 C-4.75 4.75 -4.75 4.75 -4.5 2.25 C-2.5 0.25 -2.5 0.25 0 0 Z " fill="#61E1E6" transform="translate(1079.5,639.75)"/>
<path d="M0 0 C5.28 0 10.56 0 16 0 C15.67 0.99 15.34 1.98 15 3 C8.565 3.495 8.565 3.495 2 4 C1.34 2.68 0.68 1.36 0 0 Z " fill="#76E5EA" transform="translate(1644,648)"/>
<path d="M0 0 C5.28 0 10.56 0 16 0 C15.67 0.99 15.34 1.98 15 3 C8.565 3.495 8.565 3.495 2 4 C1.34 2.68 0.68 1.36 0 0 Z " fill="#76E5EA" transform="translate(1484,648)"/>
<path d="M0 0 C4.95 0 9.9 0 15 0 C14.67 0.99 14.34 1.98 14 3 C11.11788698 3.96070434 9.30149956 4.10581883 6.3125 4.0625 C5.10013672 4.04896484 5.10013672 4.04896484 3.86328125 4.03515625 C2.94095703 4.01775391 2.94095703 4.01775391 2 4 C1.34 2.68 0.68 1.36 0 0 Z " fill="#7BE6EA" transform="translate(1516,648)"/>
<path d="M0 0 C1.98 0 3.96 0 6 0 C6.33 1.32 6.66 2.64 7 4 C4.03 4 1.06 4 -2 4 C-1.34 2.68 -0.68 1.36 0 0 Z " fill="#67E3E7" transform="translate(1518,639)"/>
<path d="M0 0 C1.98 0 3.96 0 6 0 C6 1.32 6 2.64 6 4 C3.36 4 0.72 4 -2 4 C-1.34 2.68 -0.68 1.36 0 0 Z " fill="#61E1E6" transform="translate(1646,639)"/>
<path d="M0 0 C1.98 0 3.96 0 6 0 C6 1.32 6 2.64 6 4 C3.36 4 0.72 4 -2 4 C-1.34 2.68 -0.68 1.36 0 0 Z " fill="#61E1E6" transform="translate(1486,639)"/>
</svg>
